<svg width="142" height="94" viewBox="0 0 142 94" fill="none" xmlns="http://www.w3.org/2000/svg">
<path d="M79.2379 36.2944L95.3949 47.2176L111.506 36.338L105.362 18.8L85.5641 18.7565H85.4731L79.2379 36.2944Z" stroke="black" stroke-width="1.44" stroke-linecap="round" stroke-linejoin="round"/>
<path d="M32.2231 39.7324V43.6056C32.2231 43.8232 32.2231 44.0843 32.3141 44.3019C32.4962 44.563 32.8147 44.7371 33.1788 44.6935C33.634 44.7371 34.0436 44.4324 34.1346 43.9972C34.1801 43.8232 34.1801 43.6491 34.1801 43.475V39.6889H35.4545V43.6926C35.5 43.9972 35.4545 44.3019 35.3635 44.6065C35.2269 45.0852 34.5897 45.738 33.2699 45.738C32.3141 45.738 31.6314 45.4769 31.2673 44.9546C31.0397 44.6065 30.9487 44.2148 30.9942 43.8232V39.6889H32.2231V39.7324Z" fill="white"/>
<path d="M37.366 41.1685C37.4571 41.3426 37.5481 41.5167 37.5481 41.6907C37.7301 41.5602 37.9122 41.4731 38.0942 41.3426C38.3673 41.212 38.6404 41.1685 38.9135 41.1685C39.3686 41.125 39.8237 41.3861 40.0058 41.7778C40.0513 41.9954 40.0968 42.1694 40.0968 42.387V45.5639H38.9135V42.7352C38.9135 42.2565 38.8224 42.0824 38.5038 42.0824C38.1853 42.1259 37.9122 42.2565 37.6846 42.4741V45.5639H36.5013V42.387C36.5013 42.0389 36.4558 41.6907 36.3647 41.3861L37.366 41.1685Z" fill="white"/>
<path d="M42.3724 41.1685V45.6074H41.1891V41.3426L42.3724 41.1685ZM42.509 40.0806C42.509 40.4722 42.1904 40.7769 41.7808 40.7769C41.3711 40.7769 41.0526 40.4722 41.0526 40.0806C41.0526 39.6889 41.3711 39.3843 41.7808 39.3843C42.1904 39.3843 42.5545 39.6889 42.509 40.0806C42.5545 40.0806 42.5545 40.0806 42.509 40.0806Z" fill="white"/>
<path d="M44.0564 41.212L44.6936 43.1704C44.7846 43.475 44.9212 43.9537 44.9667 44.2148C45.0122 43.8231 45.1032 43.475 45.2398 43.1269L45.8769 41.2991H47.1058L45.4218 45.6509H44.4205L42.8276 41.3426L44.0564 41.212Z" fill="white"/>
<path d="M49.882 42.9963V42.9528C49.882 42.7352 49.8365 42.5176 49.7455 42.3C49.609 42.1259 49.4269 42.0389 49.1993 42.0389C48.7442 42.0389 48.4711 42.387 48.4711 42.9963H49.882ZM51.0654 45.1722C50.6102 45.5639 49.9731 45.7815 49.3359 45.7815C48.016 45.7815 47.1968 44.9111 47.1968 43.5185C47.1513 42.9093 47.3788 42.2565 47.7885 41.7778C48.1526 41.3861 48.6532 41.1685 49.1993 41.212C49.7 41.1685 50.1551 41.3426 50.5192 41.6472C50.9288 42.0389 51.1109 42.6481 51.1109 43.562V43.8231H48.4711V43.8667C48.4711 44.563 48.8352 44.9111 49.4269 44.9111C49.8365 44.9111 50.2461 44.737 50.5647 44.4759L51.0654 45.1722Z" fill="white"/>
<path d="M52.8404 41.1685C52.9314 41.3426 53.0224 41.5602 53.0224 41.7778C53.2045 41.5602 53.432 41.3426 53.7051 41.212C53.8417 41.1685 53.9782 41.125 54.1147 41.125C54.2513 41.125 54.4333 41.1685 54.5699 41.212L54.2513 42.213C54.1602 42.1694 54.0237 42.1259 53.8872 42.1259C53.6141 42.1259 53.341 42.2565 53.159 42.4741V45.5639H51.9756V42.6481C51.9756 42.213 51.9301 41.7778 51.7936 41.3861L52.8404 41.1685Z" fill="white"/>
<path d="M57.8923 42.3435C57.5282 42.1694 57.1641 42.0389 56.7545 42.0389C56.3904 42.0389 56.1628 42.213 56.1628 42.4741C56.1628 42.7352 56.2994 42.8222 56.709 42.9093L57.2551 43.0398C57.6192 43.0833 57.9378 43.2574 58.1654 43.5185C58.3474 43.7361 58.4385 43.9972 58.4385 44.2583C58.4385 45.1722 57.6647 45.7815 56.4814 45.7815C55.8442 45.738 55.207 45.5639 54.6609 45.2593L55.0705 44.4324C55.5256 44.6935 56.0263 44.8676 56.5724 44.9111C56.891 44.9546 57.1641 44.737 57.1641 44.4324C57.1641 44.1278 56.9365 43.9972 56.4814 43.9102L55.9352 43.8231C55.6167 43.7796 55.3436 43.6056 55.116 43.388C54.934 43.1704 54.8429 42.8657 54.8429 42.6046C54.8429 41.7343 55.5711 41.1685 56.6179 41.1685C57.2096 41.1685 57.7558 41.2991 58.2564 41.5602L57.8923 42.3435Z" fill="white"/>
<path d="M60.4866 41.1685V45.6074H59.3032V41.3426L60.4866 41.1685ZM60.6231 40.0806C60.5776 40.4722 60.2135 40.7769 59.8494 40.7334C59.4853 40.6898 59.2122 40.4287 59.1667 40.0806C59.1667 39.6889 59.4853 39.3843 59.8949 39.3843C60.3045 39.3843 60.6231 39.6889 60.6231 40.0806Z" fill="white"/>
<path d="M63.5814 42.0824H62.8077V44.2583C62.8077 44.8241 62.8987 44.9546 63.3084 44.9546C63.4449 44.9546 63.6269 44.9111 63.7635 44.8676L63.9 45.5639C63.5814 45.6945 63.2628 45.738 62.9443 45.738C62.4436 45.7815 61.943 45.5204 61.7154 45.0852C61.6244 44.8676 61.6244 44.65 61.6244 44.3889V42.0389H61.1693V41.2556H61.6244C61.6244 40.9074 61.6244 40.5593 61.6699 40.2111L62.8987 39.9065C62.8532 40.3417 62.8077 40.7769 62.8077 41.212H63.8545L63.5814 42.0824Z" fill="white"/>
<path d="M65.4475 41.212L66.2212 43.7361C66.3122 43.9972 66.4487 44.65 66.4487 44.65C66.4487 44.65 66.5398 44.1713 66.5853 43.9537C66.6308 43.8231 66.6763 43.562 66.7673 43.3444L67.45 41.2556H68.6789L67.0404 45.6944C66.7218 46.5213 66.4942 46.913 66.1757 47.1306C65.8571 47.3482 65.493 47.4787 65.0834 47.5222L64.6737 46.7824C64.9468 46.7389 65.1744 46.6083 65.4019 46.4778C65.5385 46.3907 65.6295 46.2602 65.7205 46.1296C65.8116 45.9556 65.9026 45.7815 65.9936 45.6074H65.675C65.5385 45.1722 65.3109 44.5194 65.2654 44.3889L64.1731 41.3426L65.4475 41.212Z" fill="white"/>
<path d="M71.3641 42.4741C71.2731 42.7787 71.2276 43.1269 71.2276 43.4315C71.2276 43.8232 71.2731 44.1713 71.3641 44.5195C71.4551 44.737 71.7282 44.8676 71.9558 44.8676C72.4564 44.8676 72.684 44.4324 72.684 43.388C72.7295 42.9963 72.6385 42.5611 72.4564 42.213C72.2289 41.9519 71.8192 41.9083 71.5462 42.1259C71.5007 42.2565 71.4096 42.3435 71.3641 42.4741ZM73.5032 41.8648C73.8673 42.3 74.0494 42.8658 74.0039 43.475C74.0494 44.0843 73.8673 44.6935 73.4577 45.1722C73.0936 45.6074 72.5475 45.825 71.9558 45.7815C70.7269 45.7815 69.9077 44.9111 69.9077 43.5185C69.9077 42.1259 70.7269 41.2556 71.9558 41.2556C72.5475 41.1685 73.1391 41.4296 73.5032 41.8648Z" fill="white"/>
<path d="M76.5981 40.1676C76.3705 40.1241 76.143 40.2982 76.0975 40.5593C76.0975 40.6028 76.0975 40.6463 76.0975 40.6898V41.2991H77.2808L76.9622 42.0824H76.0975V45.6509H74.9141V42.0824H74.5045V41.2991H74.9596C74.9141 41.0815 74.9141 40.9074 74.9141 40.6898C74.8686 39.9935 75.3693 39.3843 76.0975 39.3408C76.1885 39.3408 76.2795 39.3408 76.3705 39.3408C76.7346 39.3408 77.0987 39.4278 77.4628 39.6019L77.0987 40.2982C76.9622 40.2111 76.7802 40.1676 76.5981 40.1676Z" fill="white"/>
<path d="M92.482 51.7L91.1167 55.7907C90.9801 56.1824 90.8436 56.7046 90.7526 56.9657C90.6615 57.4009 90.4795 58.3583 90.4795 58.3583C90.4795 58.3583 90.1609 57.0963 90.0243 56.5741L88.4769 51.5259L86.0647 51.787L88.2038 57.8361C88.2949 58.0972 88.75 59.4463 89.0686 60.2732H89.6602C89.5237 60.6213 89.3417 60.9695 89.1596 61.2741C88.9776 61.5352 88.75 61.7963 88.4769 61.9704C88.0218 62.2315 87.5211 62.4056 87.0205 62.5361L87.8397 64.0157C88.6134 63.9287 89.3872 63.6676 90.0243 63.2324C90.6615 62.7972 91.1167 62.0574 91.7538 60.4037L95.0308 51.6565L92.482 51.7ZM80.3301 58.0537C79.9205 58.4454 79.3288 58.7065 78.7372 58.75C78.3276 58.75 77.9635 58.5759 77.6904 58.2713C77.3718 57.8796 77.2352 57.2269 77.2352 56.0954C77.2352 54.0935 77.7359 53.2232 78.7827 53.2232C79.3288 53.2667 79.8295 53.5278 80.1936 53.9195L81.3314 52.4398C81.0583 52.2222 80.7852 52.0046 80.4667 51.8306C79.9205 51.5694 79.3288 51.4389 78.7372 51.4389C77.9635 51.4389 77.1897 51.6565 76.507 52.0917C75.4602 52.788 74.641 54.0935 74.641 56.0519C74.641 58.837 76.0974 60.4907 78.5551 60.4907C79.3288 60.4907 80.1026 60.3167 80.7397 59.9685C81.0583 59.7945 81.3314 59.5769 81.559 59.3157L80.4667 57.9667L80.3301 58.0537ZM106.773 55.0074C106.773 53.8324 107.274 53.1361 108.184 53.1361C108.594 53.0926 109.003 53.3102 109.231 53.6583C109.458 54.05 109.549 54.5287 109.504 54.9639V55.0509H106.773V55.0074ZM111.962 56.7046V56.1824C111.962 54.3982 111.597 53.2232 110.778 52.4398C110.05 51.8306 109.14 51.4824 108.184 51.5259C107.092 51.4824 106.045 51.9176 105.362 52.7009C104.543 53.5278 104.224 54.5722 104.224 56.1389C104.224 58.837 105.908 60.5778 108.503 60.5778C109.731 60.5778 110.96 60.1426 111.871 59.4028L110.96 58.0537C110.323 58.5759 109.549 58.9241 108.685 58.9241C107.456 58.9241 106.773 58.1407 106.773 56.8352V56.7917L111.962 56.7046ZM70.7269 51.4389C69.7711 51.4389 68.9064 51.787 68.1782 52.3528C68.1782 52.2657 68.2237 51.9176 68.2237 51.613V48.7407H65.8115C65.8115 48.8713 65.8115 50.1333 65.8115 50.3074V60.2732H68.1782V54.0935C68.6788 53.6148 69.3615 53.3537 70.0442 53.3102C70.7269 53.3102 70.9545 53.6148 70.9545 54.4852V60.2732H73.2301V54.2676C73.2756 53.7454 73.1846 53.1796 73.0026 52.6574C72.775 51.9176 71.8647 51.4389 70.7269 51.4389ZM100.356 58.0537C100.083 58.3583 99.6275 58.5759 99.1724 58.6194C97.9436 58.6194 97.534 58.0102 97.534 56.1824C97.534 54.3546 97.9891 53.4407 99.0359 53.4407C99.5365 53.4843 99.9917 53.6583 100.31 54.0065L100.356 58.0537ZM102.631 48.7843H100.31V50.7861C100.31 51.2213 100.31 51.6565 100.356 52.0482C99.9006 51.7 99.3545 51.5259 98.7628 51.5694C96.4872 51.5694 94.9397 53.3972 94.9397 56.0954C94.9397 58.7935 96.3961 60.4472 98.6718 60.4472C99.4455 60.4472 100.174 60.1861 100.765 59.7074C100.765 59.8815 100.811 60.0556 100.902 60.2296H102.996C102.859 59.8815 102.677 59.1852 102.677 57.0963V48.7843H102.631ZM85.382 58.9241C85.2 58.9241 85.0179 58.837 84.9269 58.663C84.7904 58.4454 84.7449 58.2278 84.7449 56.7482V50.0463C84.7449 49.7417 84.7449 49.0019 84.7449 48.7407H82.2872C82.3327 49.2195 82.3327 50.2204 82.3327 50.9167V57.3574C82.3327 58.5759 82.3782 58.837 82.5147 59.2722C82.7878 60.012 83.607 60.4472 84.6083 60.4472C85.109 60.4472 85.5641 60.3602 86.0192 60.2296L85.6096 58.8806C85.5641 58.9241 85.4731 58.9241 85.382 58.9241ZM63.6269 58.9241C62.8077 58.9241 62.6256 58.6194 62.6256 57.5315V53.2232H64.1276L64.7192 51.6565H62.6256C62.6256 51.0907 62.6711 50.4815 62.6711 49.9157H60.35C60.3045 50.438 60.3045 50.9602 60.3045 51.6565H59.3942V53.2232H60.3045V57.8796C60.259 58.3148 60.3045 58.7935 60.441 59.2287C60.7141 59.9685 61.6699 60.4907 62.8532 60.4907C63.4904 60.4907 64.1731 60.3602 64.7647 60.0991L64.4917 58.75C64.1731 58.837 63.9 58.8806 63.6269 58.9241ZM36.1372 53.1361L34.6808 52.7444C33.6795 52.4833 33.3154 52.1787 33.3154 51.5694C33.3154 50.7861 33.9981 50.2204 34.9994 50.2204C36.0006 50.2639 37.0019 50.5685 37.8667 51.1343L39.0045 49.437C37.7756 48.6537 36.3647 48.2185 34.9083 48.262C32.3141 48.262 30.5391 49.7417 30.5391 51.8741C30.5391 52.4833 30.7211 53.1361 31.0397 53.6583C31.4949 54.3546 32.2231 54.8333 33.4519 55.138L34.8173 55.4861C35.9096 55.7907 36.4102 56.2259 36.4102 57.0093C36.4102 58.0537 35.682 58.6194 34.2711 58.6194C33.0878 58.5759 31.95 58.2713 30.9487 57.662L30.0385 59.4898C31.3128 60.1861 32.7237 60.5343 34.2256 60.5343C37.275 60.5343 39.2776 58.9676 39.2776 56.6176C39.232 54.8769 38.1397 53.6583 36.1372 53.1361ZM50.4282 51.4824C50.1551 51.4824 49.882 51.5259 49.6545 51.613C49.1083 51.8741 48.6532 52.2657 48.3346 52.7009C48.2891 52.2657 48.1981 51.8306 47.9705 51.4824L45.8769 52.0046C46.15 52.8315 46.241 53.6583 46.1955 54.5287V60.2732H48.5622V54.1806C48.8808 53.7454 49.4269 53.4843 50.0186 53.4407C50.2461 53.4407 50.5192 53.4843 50.7013 53.6148L51.3385 51.613C51.0654 51.5259 50.7468 51.4824 50.4282 51.4824ZM44.0109 58.9241C43.1917 58.9241 43.0096 58.6194 43.0096 57.5315V53.2232H44.5115L45.1032 51.6565H43.0096C43.0096 51.0907 43.0096 50.4815 43.0551 49.9157H40.6885C40.6429 50.438 40.6429 50.9602 40.6429 51.6565H39.7327V53.2232H40.6429V57.8796C40.5974 58.3148 40.6429 58.7935 40.825 59.2287C41.0981 59.9685 42.0538 60.4907 43.2372 60.4907C43.8743 60.4907 44.557 60.3602 45.1487 60.0991L44.8301 58.75C44.557 58.837 44.284 58.8806 44.0109 58.9241ZM55.9808 58.3583C55.6622 58.7065 55.2526 58.9241 54.7519 58.9241C54.1602 58.9241 53.7051 58.4454 53.7051 57.8796C53.7051 57.8361 53.7051 57.8361 53.7051 57.7926C53.7051 56.7482 54.2513 56.487 55.8897 56.487H55.9808V58.3583ZM58.3019 57.575V57.4445L58.3474 54.5722C58.3929 54.05 58.3474 53.5278 58.2109 53.0056C57.8468 52.0482 56.8 51.5259 55.2981 51.5259C54.4333 51.5259 53.6141 51.7 52.8404 52.0482C52.3397 52.2222 51.8391 52.4833 51.384 52.7444L52.3852 54.3546C53.159 53.7889 54.0237 53.4407 54.9795 53.3972C55.8442 53.3972 56.0263 53.7019 56.0263 54.6593V55.0074C55.8442 55.0074 55.6622 55.0074 55.4801 55.0074C52.6128 55.0074 51.1564 55.9648 51.1564 57.9667C51.1564 59.6639 52.2487 60.6648 54.2513 60.6648C54.8885 60.7083 55.5256 60.5343 56.0718 60.1861C56.2538 60.0556 56.4359 59.925 56.6179 59.7509C56.891 60.2296 57.3461 60.5778 57.8923 60.7954L59.1211 59.3593C58.484 58.837 58.3019 58.4889 58.3019 57.575Z" fill="white"/>
<path d="M36.4558 65.9741C35.9096 65.5389 35.2269 65.2778 34.5443 65.2778C34.0436 65.2343 33.5885 65.4083 33.2244 65.713C32.5872 66.2787 32.4507 67.2361 32.4507 68.5417C32.4507 69.8037 32.6782 70.587 33.1334 71.0222C33.543 71.3704 34.0436 71.5445 34.5898 71.5009C34.9539 71.5009 35.318 71.4574 35.6366 71.2833V69.2815H34.2257L33.9981 67.8454H37.5481V72.0232C36.6378 72.5454 35.591 72.8065 34.4987 72.8065C33.2699 72.8935 32.1321 72.3713 31.3584 71.4574C30.6757 70.587 30.3116 69.4991 30.4026 68.4111C30.4026 66.5833 31.0398 65.2343 32.3141 64.4509C32.9513 64.0158 33.7705 63.7982 34.5443 63.8417C35.591 63.8417 36.6378 64.1898 37.4571 64.8426L36.4558 65.9741Z" fill="white"/>
<path d="M40.734 65.1037V70.1083C40.734 71.1963 40.734 71.3704 40.825 71.5445C40.916 71.675 41.0526 71.7185 41.1891 71.7185C41.2346 71.7185 41.3257 71.7185 41.3712 71.7185L41.6898 72.7195C41.3712 72.85 41.0071 72.8935 40.643 72.8935C39.9603 72.937 39.3686 72.5889 39.0955 72.0232C38.959 71.7185 38.9135 71.5009 38.9135 70.587V65.8C38.9135 65.1472 38.9135 64.4945 38.8224 63.8417L40.643 63.45C40.734 64.0158 40.7795 64.5815 40.734 65.1037Z" fill="white"/>
<path d="M45.8769 69.9343C44.6481 69.9343 44.2384 70.1519 44.2384 70.8917C44.1929 71.3269 44.5115 71.675 44.9666 71.7185H45.0122C45.3763 71.7185 45.6949 71.5445 45.9224 71.2833L45.9679 69.8908H45.8769V69.9343ZM43.6013 66.5398C44.1929 66.2787 44.7846 66.1482 45.4218 66.1482C46.5596 66.1482 47.3333 66.5398 47.6064 67.2796C47.7429 67.6713 47.7429 68.063 47.6974 68.4546L47.6519 70.6306V70.7611C47.5609 71.2833 47.834 71.8056 48.2891 72.1102L47.3788 73.1546C46.9692 73.0241 46.6051 72.7195 46.4231 72.3713C46.2865 72.5019 46.15 72.5889 46.0134 72.7195C45.6038 72.9806 45.1487 73.1111 44.6481 73.0676C43.1461 73.0676 42.3269 72.3278 42.3269 71.0658C42.3269 69.5426 43.4192 68.8463 45.5583 68.8463C45.6949 68.8463 45.8314 68.8463 45.9679 68.8463V68.5852C45.9679 67.8889 45.8314 67.6278 45.1942 67.6278C44.466 67.6713 43.8288 67.9324 43.2372 68.3676L42.4634 67.1491C42.8275 66.888 43.1916 66.7139 43.6013 66.5398Z" fill="white"/>
<path d="M53.341 67.8889C52.8404 67.5843 52.2487 67.4537 51.7026 67.4102C51.2019 67.4102 50.8378 67.6713 50.8378 68.0195C50.8378 68.3676 51.0654 68.5417 51.6571 68.6722L52.4763 68.8898C53.0225 68.9769 53.4776 69.238 53.7962 69.6296C54.0692 69.9343 54.1603 70.3259 54.1603 70.7176C54.1603 72.0667 53.0225 72.9371 51.293 72.9371C50.3372 72.8935 49.3814 72.6324 48.5622 72.1972L49.1994 70.9787C49.8821 71.3704 50.6558 71.6315 51.4295 71.7185C51.8846 71.7621 52.2942 71.4574 52.3398 71.0222C52.3398 70.5871 52.0212 70.3695 51.293 70.2389L50.5192 70.0648C50.0641 69.9778 49.609 69.7602 49.2904 69.4121C49.0173 69.0639 48.9263 68.6722 48.9263 68.2371C48.9263 66.975 49.9731 66.1482 51.5205 66.1482C52.3853 66.1482 53.2045 66.3658 53.9327 66.7574L53.341 67.8889Z" fill="white"/>
<path d="M56.709 68.4111C56.709 69.0639 57.1186 69.325 57.7558 69.325C58.4384 69.325 58.8481 68.9768 58.8481 68.4111C58.8936 67.9324 58.484 67.4972 57.9378 67.4537C57.8923 67.4537 57.8013 67.4537 57.7558 67.4537C57.2551 67.3667 56.8 67.7148 56.709 68.1935C56.709 68.237 56.709 68.3241 56.709 68.4111ZM61.9429 67.0185C61.6243 67.3231 61.1692 67.4972 60.7141 67.4972C60.5775 67.4972 60.3955 67.4972 60.259 67.4537C60.532 67.7583 60.6686 68.1065 60.6686 68.4981C60.6686 69.6296 59.6218 70.413 58.1654 70.413H57.8923C57.4372 70.587 57.2096 70.7611 57.2096 70.9352C57.2096 71.0222 57.3006 71.1092 57.4827 71.1092H58.4384C59.4852 71.1092 59.9859 71.2833 60.4865 71.675C60.8961 72.0231 61.0782 72.5454 61.0782 73.0676C61.0782 73.5463 60.8961 74.025 60.532 74.3731C59.9404 74.9824 58.9391 75.2 57.8923 75.2C56.9365 75.2 55.9352 75.0259 55.3436 74.5037C54.9795 74.1991 54.7974 73.8074 54.7974 73.3722C54.7974 73.1546 54.8429 72.937 54.934 72.7194H56.5724C56.5269 72.85 56.4814 73.0241 56.4814 73.1546C56.4814 73.6768 56.9365 73.9379 57.7558 73.9379C58.1199 73.9815 58.5295 73.8944 58.8481 73.7204C59.1211 73.5898 59.2577 73.3287 59.2577 73.0676C59.2577 72.5018 58.7115 72.3278 58.0288 72.2842H57.2551C56.709 72.3278 56.1628 72.2407 55.6167 72.0667C55.2526 71.9361 55.0705 71.5879 55.116 71.2398C55.116 70.8481 55.2526 70.4129 56.3449 70.1518C55.4346 70.0213 54.8429 69.238 54.8884 68.3676C54.8884 67.062 56.0263 66.1917 57.7102 66.1917C58.1199 66.1917 58.5295 66.2352 58.9391 66.3657C59.2122 66.4528 59.4852 66.4963 59.7583 66.4963C60.259 66.4963 60.7596 66.2787 61.1692 65.9305L61.9429 67.0185Z" fill="white"/>
<path d="M63.9455 68.1065C63.809 68.5852 63.7634 69.0639 63.7634 69.5426C63.7179 70.1084 63.809 70.6306 63.991 71.1528C64.1731 71.5009 64.4917 71.675 64.9013 71.675C65.675 71.675 65.9936 71.0222 65.9936 69.4991C65.9936 68.6287 65.857 68.063 65.6295 67.7584C65.4474 67.5408 65.1743 67.4102 64.8558 67.4102C64.4461 67.4102 64.082 67.7148 63.9455 68.1065ZM67.1314 67.1491C67.6775 67.8019 67.9506 68.6722 67.9051 69.4991C67.9961 70.413 67.6776 71.2834 67.0404 71.9796C66.4942 72.5889 65.675 72.9371 64.8102 72.8935C62.9897 72.8935 61.8064 71.588 61.8064 69.5426C61.8064 67.4972 62.9897 66.1917 64.8102 66.1917C65.7205 66.1482 66.5397 66.4963 67.1314 67.1491Z" fill="white"/>
<path d="M69.7712 66.2352L70.3173 68.7157C70.4994 69.4555 70.6814 70.7176 70.6814 70.7176C70.818 69.9778 70.9545 69.2379 71.1821 68.4981L71.8193 66.3222H73.5032L74.0494 68.4546C74.368 69.6296 74.55 70.7176 74.55 70.7176C74.5955 70.4565 74.7321 69.4555 74.9141 68.6287L75.4148 66.3222H77.2353L75.3237 72.7629H73.6853L73.0936 70.5435C72.9571 70.0213 72.775 69.412 72.7295 68.9768C72.684 68.6722 72.6385 68.5852 72.6385 68.3241C72.593 68.5852 72.5475 68.8898 72.4564 69.1509C72.3199 69.7166 72.0468 70.8046 71.8648 71.4139L71.5007 72.7194H69.8622L68.0417 66.4092L69.7712 66.2352Z" fill="white"/>
<path d="M85.5641 18.887L79.3743 36.3379L95.4859 47.2176L111.552 36.425L105.408 18.887H85.5641Z" fill="white"/>
<path d="M95.9865 26.7639L84.1532 26.7204L81.6045 33.7269C81.6045 33.7269 80.6942 35.3806 82.8788 37.2954C85.0634 39.2102 94.9852 45.738 95.3948 44.9982L98.3077 41.9519L95.9865 26.7639Z" fill="#FF1100"/>
<path d="M95.4859 26.7639H105.908L95.3949 33.988L95.4859 26.7639Z" fill="#036288"/>
<path d="M88.8865 25.0667C88.7955 25.1102 88.75 25.1972 88.7045 25.2842L88.8865 25.0667Z" fill="white"/>
<path d="M89.1596 25.2842C89.1141 25.1972 89.0231 25.1102 88.9321 25.0667L89.1596 25.2842Z" fill="white"/>
<path d="M101.767 25.0231C101.676 25.0667 101.585 25.1537 101.585 25.2407L101.767 25.0231Z" fill="white"/>
<path d="M84.8359 33.2046C84.6993 33.2917 84.2897 33.4657 84.1532 32.9C83.9256 31.7685 83.0154 32.3778 82.7878 32.7694C82.5602 33.1611 82.2872 33.1176 82.2872 33.1176C82.2872 33.1176 82.5602 33.1611 82.6058 33.5963C82.6513 34.0315 83.1519 34.9889 83.8801 34.0315C84.2442 33.5528 84.6083 34.162 84.6994 34.2926L84.7449 34.4231C84.7904 34.5972 84.8359 35.337 84.1987 35.2065C82.9699 34.9889 83.334 35.9898 83.607 36.3379C83.6981 36.4685 83.6981 36.6861 83.607 36.8167C83.8346 36.7296 84.1077 36.7296 84.3352 36.8167C84.7904 36.9472 85.9282 36.9037 85.2455 35.9463C84.8814 35.4676 85.4731 35.3805 85.6096 35.337H85.7006C85.8827 35.3805 86.6109 35.4241 86.2923 35.9028C85.6551 36.9037 86.7929 36.9907 87.2481 36.8167C87.7032 36.6426 87.8852 36.8602 87.8852 36.8602C87.8852 36.8602 87.7032 36.6426 87.9763 36.2944C88.2494 35.9463 88.5224 34.9018 87.2936 35.2065C86.7019 35.337 86.7929 34.6407 86.7929 34.4667C86.7929 34.2926 87.1115 33.7704 87.5211 34.2055C88.3404 35.1194 88.7955 34.0315 88.7955 33.5963C88.7955 33.1611 89.0686 33.0741 89.0686 33.0741C89.0686 33.0741 88.7955 33.1611 88.5224 32.7694C88.2493 32.3778 87.2936 31.812 87.157 32.987C87.1115 33.5528 86.4743 33.3352 86.3378 33.2481C86.2013 33.1611 85.6096 32.5954 86.2013 32.3778C87.3846 31.9861 86.5654 31.2463 86.1102 31.1157C85.6551 30.9852 85.6551 30.7241 85.6551 30.7241C85.6551 30.7241 85.6551 30.9852 85.2 31.0722C84.7449 31.1592 83.8346 31.812 84.9724 32.3342C85.5186 32.5954 85.0179 32.987 84.8814 33.0741L84.8359 33.2046Z" fill="white"/>
<path d="M84.8359 33.2046L84.6994 32.987L84.5173 33.0741H84.4718C84.4263 33.0305 84.3808 32.9435 84.3808 32.9C84.3353 32.6824 84.2442 32.4648 84.1077 32.2907C83.9712 32.1602 83.7891 32.0731 83.6071 32.0731C83.3795 32.0731 83.1519 32.1602 82.9699 32.2907C82.7878 32.4213 82.6513 32.5518 82.5603 32.7259C82.5148 32.813 82.4692 32.8565 82.3782 32.9H82.2872V33.0305L82.3327 32.9V33.0305L82.3782 32.9C82.2417 32.8565 82.1051 32.9435 82.0596 33.0741C82.0141 33.2046 82.1051 33.3352 82.2417 33.3787L82.2872 33.4222C82.3327 33.5092 82.3327 33.5963 82.3327 33.6398C82.3327 33.8574 82.4237 34.1185 82.5603 34.2926C82.6513 34.3796 82.7423 34.5102 82.8333 34.5537C82.9699 34.6407 83.1064 34.6842 83.243 34.6842C83.6071 34.6407 83.8801 34.4667 84.0622 34.162L84.1532 34.075H84.1987C84.2442 34.1185 84.2898 34.162 84.3353 34.2055C84.3808 34.2491 84.4263 34.3361 84.4718 34.3796L84.6994 34.2491L84.4263 34.2926L84.4718 34.4231C84.4718 34.4667 84.4718 34.5102 84.4718 34.5972C84.4718 34.6842 84.4718 34.7713 84.4263 34.9018L84.3808 34.9454H84.2898H84.2442C84.1077 34.9454 84.0167 34.9018 83.8801 34.9018C83.6526 34.9018 83.425 34.9454 83.243 35.1194C83.1064 35.25 83.0609 35.4241 83.0609 35.5981C83.0609 35.9028 83.1975 36.2074 83.334 36.425L83.3795 36.5555V36.6426L83.4705 36.6861L83.3795 36.5991L83.4705 36.6426L83.3795 36.5555C83.2885 36.6426 83.2885 36.7731 83.3795 36.8602C83.4705 36.9472 83.6071 36.9472 83.6981 36.9037C83.7891 36.8602 83.8801 36.8602 83.9712 36.8602C84.0622 36.8602 84.1532 36.8602 84.2442 36.9037C84.4263 36.9472 84.5628 36.9907 84.7449 36.9907C84.9269 36.9907 85.1545 36.9472 85.3366 36.8602C85.4276 36.8167 85.5186 36.7296 85.6096 36.6426C85.6551 36.5555 85.7007 36.425 85.7007 36.338C85.7007 36.0768 85.6096 35.8592 85.4276 35.6852C85.3821 35.6417 85.3821 35.5981 85.3821 35.5546L85.4731 35.5111L85.6551 35.4676L85.6096 35.25V35.4676H85.7007V35.25L85.6551 35.4676C85.7462 35.5111 85.8372 35.5546 85.9282 35.5981L86.0192 35.6417C86.0192 35.6852 86.0192 35.7287 85.9737 35.7287C85.8372 35.9028 85.7462 36.1204 85.7462 36.338C85.7462 36.5555 85.8827 36.8167 86.1103 36.9037C86.2923 36.9907 86.5199 37.0342 86.7019 37.0342C86.884 37.0342 87.066 36.9907 87.2026 36.9472C87.2481 36.9037 87.3391 36.9037 87.4301 36.9037L87.5212 36.9472L87.6122 36.8602L87.5212 36.9037L87.6122 36.8167L87.5212 36.8602C87.5667 36.9037 87.6122 36.9472 87.7032 36.9472C87.7487 36.9472 87.8398 36.9472 87.8853 36.9037C87.9308 36.8602 87.9763 36.8167 87.9763 36.7296C87.9763 36.6861 87.9763 36.5991 87.9308 36.5555L87.8398 36.6426L87.9308 36.5991L87.8398 36.6861L87.9308 36.6426V36.5991C87.9308 36.512 87.9763 36.425 88.0218 36.3815C88.2039 36.1639 88.2949 35.8592 88.2949 35.5981C88.2949 35.4241 88.2494 35.25 88.1128 35.0759C87.9308 34.9018 87.7032 34.8148 87.4757 34.8583C87.3391 34.8583 87.1571 34.8583 87.0205 34.9018H86.9295H86.884L86.8385 34.8148C86.793 34.7713 86.793 34.6842 86.793 34.6407C86.793 34.5537 86.793 34.5102 86.793 34.4231L86.884 34.2926L86.9295 34.2491L87.0205 34.3361C87.2026 34.5972 87.4757 34.7278 87.7942 34.7713C87.9763 34.7713 88.1128 34.7278 88.2494 34.5972C88.4314 34.4667 88.5224 34.2926 88.6135 34.1185C88.7045 33.9444 88.7045 33.7704 88.7045 33.5963V33.5528C88.7045 33.4657 88.7045 33.3787 88.75 33.2917H88.7955C88.9321 33.2481 89.0231 33.1176 88.9776 33.0305C88.9321 32.9 88.7955 32.8565 88.659 32.8565L88.7045 32.987V32.8565L88.75 32.987V32.8565C88.7045 32.8565 88.659 32.8565 88.5224 32.6824C88.4314 32.5518 88.2949 32.4213 88.1128 32.2907C87.9308 32.1602 87.7032 32.1167 87.4757 32.0731C87.2481 32.0731 87.066 32.1602 86.9295 32.3342C86.793 32.5083 86.7474 32.7694 86.7019 32.987C86.7019 33.0741 86.6564 33.1176 86.6564 33.1176H86.5654C86.4289 33.1176 86.3378 33.0741 86.2468 33.0305C86.2013 32.987 86.1103 32.9435 86.0648 32.8565C86.0192 32.813 85.9737 32.7259 85.9737 32.6389L86.0648 32.5954C86.2923 32.5518 86.4744 32.4213 86.6109 32.2907C86.7475 32.1602 86.8385 31.9861 86.8385 31.812C86.8385 31.5944 86.7019 31.3768 86.5199 31.2028C86.3833 31.0722 86.1558 30.9417 85.9737 30.8546C85.7917 30.8111 85.7462 30.7676 85.7462 30.7241V30.6805H85.4731H85.2C85.2 30.6805 85.1545 30.7676 84.9269 30.8111C84.6994 30.8546 84.4718 30.9417 84.2898 31.1157C84.0622 31.2463 83.9257 31.5074 83.9257 31.725C83.9257 31.8991 84.0167 32.0296 84.1077 32.1602C84.2442 32.2907 84.4263 32.4213 84.6083 32.5083C84.6539 32.5083 84.6994 32.5518 84.6994 32.5954V32.6389C84.6083 32.7259 84.5628 32.813 84.4263 32.9L84.3808 32.9435L84.6539 33.0741L84.8359 33.2046L85.0635 33.3352L85.109 33.2917L84.9269 33.1611L85.109 33.3352C85.2 33.2917 85.2455 33.2046 85.3366 33.1176C85.4731 32.987 85.5186 32.8565 85.5641 32.6824C85.5641 32.5954 85.5186 32.4648 85.4731 32.3778C85.3821 32.2907 85.291 32.2037 85.1545 32.1602C85.018 32.1167 84.9269 32.0296 84.8359 31.9426C84.7904 31.8991 84.7904 31.8555 84.7904 31.812C84.8359 31.725 84.8814 31.5944 84.9724 31.5509C85.109 31.4639 85.2455 31.4204 85.3821 31.3768C85.6096 31.3333 85.7917 31.2463 85.9282 31.0722C85.9737 30.9852 86.0192 30.8981 86.0192 30.8111C86.0192 30.6805 85.9282 30.55 85.7917 30.55C85.6551 30.55 85.5186 30.637 85.5186 30.7676C85.5186 30.8546 85.5641 30.9852 85.6096 31.0722C85.7462 31.2463 85.9282 31.3333 86.1103 31.4204C86.2468 31.4639 86.3833 31.5509 86.4744 31.638C86.5654 31.725 86.6109 31.812 86.6564 31.8991L86.6109 32.0296C86.5199 32.1167 86.3833 32.2037 86.2468 32.2472C86.1103 32.2907 86.0192 32.3778 85.9282 32.4648C85.8372 32.5518 85.7917 32.6389 85.8372 32.7694C85.8372 32.9435 85.9282 33.1176 86.0648 33.2917C86.1103 33.3787 86.1558 33.4222 86.2468 33.4657C86.2923 33.5092 86.3378 33.5528 86.4289 33.5963C86.6109 33.6833 86.793 33.7268 86.975 33.7268C87.1116 33.7268 87.2936 33.6833 87.3846 33.5963C87.5212 33.4657 87.5667 33.3352 87.6122 33.1611C87.6122 32.987 87.6577 32.8565 87.7487 32.7259C87.7942 32.6824 87.8398 32.6824 87.8853 32.6824C88.0218 32.6824 88.1128 32.7259 88.2039 32.813C88.2949 32.8565 88.3859 32.9435 88.4769 33.0741C88.6135 33.2917 88.8865 33.4657 89.1596 33.4657C89.2051 33.4657 89.2507 33.4657 89.2962 33.4657L89.4327 33.3352V33.0741L89.3417 32.9435H89.1596C89.0686 32.987 88.9776 33.0305 88.8866 33.0741C88.75 33.2481 88.7045 33.4222 88.7045 33.6398V33.6833C88.7045 33.8574 88.659 33.988 88.568 34.162C88.5225 34.2491 88.4769 34.2926 88.4314 34.3361L88.2949 34.3796C88.2494 34.3796 88.1128 34.3361 87.8853 34.1185C87.7487 33.988 87.5667 33.8574 87.3846 33.8574C87.2936 33.8574 87.1571 33.9009 87.066 33.9444C86.975 34.0315 86.884 34.1185 86.793 34.2055C86.7474 34.2926 86.7019 34.3796 86.7019 34.4667C86.7019 34.5537 86.6564 34.6407 86.6564 34.7278C86.6564 34.8583 86.7019 35.0324 86.7475 35.163C86.793 35.25 86.884 35.337 86.9295 35.3805C87.0205 35.4241 87.1571 35.4676 87.2481 35.4676C87.3391 35.4676 87.3846 35.4676 87.4757 35.4241C87.5667 35.3805 87.7032 35.3805 87.7942 35.3805C87.9763 35.3805 88.0218 35.4241 88.0218 35.4676C88.0673 35.5111 88.0673 35.5981 88.0673 35.6417C88.0673 35.8157 87.9763 35.9898 87.8853 36.1639C87.7487 36.2944 87.6577 36.4685 87.6577 36.6861C87.6577 36.8167 87.7032 36.9037 87.7487 36.9907C87.7942 37.0342 87.8398 37.0778 87.9308 37.0778C87.9763 37.0778 88.0673 37.0778 88.1128 37.0342C88.1583 36.9907 88.2039 36.9472 88.2039 36.8602C88.2039 36.8167 88.2039 36.7296 88.1583 36.6861C88.0218 36.5555 87.8398 36.4685 87.6577 36.4685C87.5212 36.4685 87.3846 36.512 87.2481 36.5555C87.1571 36.5991 87.0205 36.5991 86.9295 36.5991C86.793 36.5991 86.7019 36.5991 86.5654 36.512C86.5199 36.4685 86.4744 36.425 86.4744 36.338C86.4744 36.2074 86.5199 36.0768 86.6109 35.9463C86.7019 35.8592 86.7019 35.7287 86.7019 35.5981C86.7019 35.4676 86.6564 35.337 86.5199 35.25C86.3833 35.163 86.2468 35.0759 86.1103 35.0759C85.9737 35.0324 85.8372 35.0324 85.8372 35.0324H85.5641C85.4276 35.0759 85.3366 35.0759 85.2 35.1194C85.109 35.163 85.018 35.2065 84.9724 35.2935C84.8814 35.3805 84.8359 35.4676 84.8359 35.5981C84.8359 35.7287 84.8814 35.9028 85.018 35.9898C85.109 36.1204 85.1545 36.2509 85.2 36.3815V36.5555C85.1545 36.5991 85.109 36.5991 85.0635 36.6426C84.9724 36.6861 84.8814 36.6861 84.7904 36.6861C84.6539 36.6861 84.5628 36.6861 84.4263 36.6426C84.2898 36.5991 84.1077 36.5555 83.9712 36.5555C83.7891 36.5555 83.6071 36.5991 83.4705 36.6426L83.6071 36.8602L83.8346 36.9907C83.9712 36.7731 83.9712 36.4685 83.8346 36.2509C83.6981 36.0768 83.6526 35.8592 83.6071 35.6417C83.6071 35.5546 83.6071 35.5111 83.6526 35.5111C83.6981 35.5111 83.7436 35.4676 83.9257 35.4676C84.0167 35.4676 84.1077 35.4676 84.1987 35.4676H84.3353C84.4718 35.4676 84.6083 35.4241 84.6994 35.3805C84.8359 35.2935 84.9269 35.163 84.9724 35.0324C85.018 34.8148 85.0635 34.5972 85.018 34.4231L84.9724 34.2926L84.9269 34.2055C84.8814 34.162 84.8359 34.0315 84.6994 33.9009C84.6539 33.8139 84.5628 33.7704 84.5173 33.7268C84.4263 33.6833 84.2898 33.6398 84.1987 33.6398C84.0167 33.6398 83.8346 33.7268 83.6981 33.9009C83.4705 34.162 83.334 34.2055 83.2885 34.2055L83.1975 34.162C83.1064 34.075 83.0609 33.988 83.0154 33.9009C82.9699 33.8139 82.9244 33.6833 82.9244 33.5963C82.9244 33.3787 82.8333 33.2046 82.6968 33.0305C82.6058 32.9435 82.5148 32.9 82.4237 32.9C82.2872 32.8565 82.1507 32.9435 82.1051 33.0741C82.1051 33.1176 82.1051 33.2046 82.1507 33.2481C82.1962 33.2917 82.2417 33.3352 82.3327 33.3352H82.4237C82.5603 33.3352 82.6513 33.2917 82.7423 33.2481C82.8789 33.1611 83.0154 33.0305 83.1064 32.9C83.1975 32.813 83.2885 32.7694 83.3795 32.6824C83.4705 32.5954 83.5615 32.5518 83.6981 32.5518L83.8346 32.6389C83.9257 32.7694 83.9712 32.9 84.0167 33.0305C84.0167 33.2046 84.1077 33.3352 84.2442 33.4657C84.3353 33.5528 84.4718 33.6398 84.6539 33.6398C84.8359 33.6398 84.9724 33.5963 85.109 33.5092L85.2 33.4657L84.8359 33.2046Z" fill="#FF1100"/>
<path d="M94.5301 39.6454C94.3936 39.7324 93.9839 39.95 93.8474 39.3408C93.6198 38.2093 92.7096 38.8185 92.482 39.2102C92.2545 39.6019 91.9814 39.5583 91.9814 39.5583C91.9814 39.5583 92.2545 39.6019 92.3 40.037C92.3455 40.4722 92.8461 41.4296 93.5743 40.4722C93.9384 39.9935 94.3025 40.6028 94.3936 40.7333L94.4391 40.8639C94.4846 41.038 94.5301 41.7778 93.8929 41.6472C92.6641 41.4296 93.0282 42.4306 93.3013 42.7787C93.3923 42.9093 93.3923 43.1269 93.3013 43.2574C93.5288 43.1704 93.8019 43.1704 94.0295 43.2574C94.4846 43.388 95.6224 43.3445 94.8942 42.387C94.5301 41.9083 95.1218 41.8213 95.3038 41.7778H95.3948C95.5769 41.8213 96.3051 41.8648 95.9865 42.3435C95.3493 43.3445 96.4872 43.4315 96.9423 43.2574C97.3974 43.0833 97.5795 43.3009 97.5795 43.3009C97.5795 43.3009 97.3974 43.0833 97.716 42.7352C98.0346 42.387 98.2621 41.3426 97.0333 41.6472C96.4416 41.7778 96.5327 41.0815 96.5327 40.9074C96.5327 40.7333 96.8513 40.2111 97.2609 40.6463C98.0801 41.5167 98.5352 40.4722 98.5352 40.037C98.5352 39.6019 98.7628 39.6019 98.7628 39.6019C98.7628 39.6019 98.4897 39.6889 98.2166 39.2972C97.9436 38.9056 96.9878 38.3833 96.8513 39.5148C96.8057 40.0806 96.1686 39.863 96.032 39.7759C95.8955 39.6889 95.3038 39.1232 95.8955 38.9056C97.0788 38.5139 96.2596 37.7741 95.8045 37.6435C95.3493 37.513 95.3493 37.2519 95.3493 37.2519C95.3493 37.2519 95.3493 37.513 94.8942 37.6C94.4391 37.687 93.5288 38.3398 94.6666 38.862C95.2128 39.1232 94.6666 39.4713 94.5301 39.6454Z" fill="white"/>
<path d="M104.042 33.4657C103.906 33.5528 103.496 33.7704 103.36 33.1611C103.132 32.0296 102.222 32.6389 101.994 33.0305C101.767 33.4222 101.494 33.3787 101.494 33.3787C101.494 33.3787 101.767 33.4222 101.812 33.8574C101.858 34.2926 102.358 35.25 103.087 34.2926C103.451 33.8139 103.815 34.4231 103.906 34.5537L103.951 34.6842C103.997 34.8583 104.042 35.5981 103.405 35.4676C102.176 35.25 102.54 36.2509 102.813 36.5991C102.904 36.7296 102.904 36.9472 102.813 37.0778C103.041 36.9907 103.314 36.9907 103.587 37.0778C104.042 37.2083 105.18 37.1648 104.497 36.2074C104.133 35.7287 104.725 35.6417 104.862 35.5981H104.953C105.135 35.5981 105.863 35.6852 105.544 36.1639C104.907 37.1648 106.045 37.2518 106.5 37.0778C106.955 36.9037 107.137 37.1213 107.137 37.1213C107.137 37.1213 106.955 36.9037 107.228 36.5555C107.501 36.2074 107.729 35.2065 106.546 35.4676C105.954 35.5981 106.045 34.9018 106.045 34.7278C106.045 34.5537 106.363 34.0315 106.773 34.4667C107.592 35.337 108.047 34.2926 108.047 33.8574C108.047 33.4222 108.321 33.3352 108.321 33.3352C108.321 33.3352 108.047 33.4222 107.774 33.0305C107.501 32.6389 106.546 32.0731 106.409 33.2481C106.363 33.8139 105.726 33.5963 105.59 33.5092C105.453 33.4222 104.862 32.8565 105.453 32.6389C106.637 32.2472 105.817 31.5074 105.362 31.3768C104.907 31.2463 104.953 30.9852 104.953 30.9852C104.953 30.9852 104.953 31.2463 104.497 31.3333C104.042 31.4204 103.132 32.0731 104.27 32.5954C104.816 32.8565 104.315 33.2481 104.179 33.3352L104.042 33.4657Z" fill="white"/>
<path d="M104.042 33.4657L103.906 33.2481L103.724 33.3352H103.678C103.633 33.2917 103.633 33.2046 103.587 33.1611C103.542 32.9435 103.451 32.7259 103.314 32.5518C103.178 32.4213 102.995 32.3342 102.768 32.3342C102.54 32.3342 102.313 32.4213 102.131 32.5518C101.949 32.6824 101.812 32.813 101.721 32.987C101.676 33.0741 101.63 33.1176 101.539 33.1611H101.494V33.2917L101.539 33.1611V33.2917L101.585 33.1611C101.448 33.1176 101.312 33.2046 101.266 33.3352C101.22 33.4657 101.311 33.5963 101.448 33.6398C101.448 33.6398 101.539 33.6833 101.539 33.9009C101.539 34.1185 101.63 34.3361 101.767 34.5537C101.858 34.6842 101.949 34.7713 102.04 34.8583C102.176 34.9454 102.313 34.9889 102.449 34.9889C102.813 34.9454 103.086 34.7713 103.269 34.4667L103.36 34.3796H103.405C103.451 34.4231 103.496 34.4667 103.542 34.5102C103.587 34.5537 103.633 34.6407 103.678 34.6842L103.906 34.5537L103.633 34.5972L103.678 34.7278C103.678 34.7278 103.678 34.8148 103.678 34.9018C103.678 34.9889 103.678 35.0759 103.633 35.2065L103.587 35.25H103.496H103.451C103.314 35.25 103.223 35.2065 103.087 35.2065C102.859 35.2065 102.631 35.25 102.449 35.4241C102.313 35.5546 102.267 35.7287 102.267 35.9028C102.267 36.2074 102.404 36.512 102.54 36.7731L102.586 36.9037L102.54 36.9907L102.631 37.0342L102.54 36.9472L102.631 36.9907L102.54 36.9037C102.495 36.9907 102.495 37.1213 102.586 37.2083C102.677 37.2954 102.813 37.2954 102.904 37.2518C102.995 37.2083 103.087 37.2083 103.178 37.2083C103.269 37.2083 103.36 37.2083 103.451 37.2518C103.633 37.2954 103.815 37.3389 103.951 37.3389C104.133 37.3389 104.361 37.2954 104.543 37.2083C104.634 37.1648 104.725 37.0778 104.77 36.9907C104.816 36.9037 104.862 36.7731 104.862 36.6861C104.816 36.4685 104.725 36.2074 104.588 36.0333C104.543 35.9898 104.543 35.9463 104.497 35.9028L104.588 35.8592L104.77 35.8157L104.725 35.5981V35.8157H104.816V35.5546L104.77 35.8157C104.907 35.8157 104.998 35.8592 105.089 35.8592L105.18 35.9028C105.18 35.9463 105.18 35.9898 105.135 35.9898C104.998 36.1639 104.953 36.3815 104.907 36.5991C104.907 36.8167 105.044 37.0342 105.271 37.1648C105.453 37.2518 105.681 37.3389 105.908 37.3389C106.09 37.3389 106.272 37.2954 106.409 37.2518C106.454 37.2083 106.545 37.2083 106.637 37.2083L106.728 37.2518L106.819 37.1648L106.728 37.2083L106.819 37.1213L106.728 37.1648C106.773 37.2083 106.819 37.2518 106.91 37.2518C106.955 37.2518 107.046 37.2518 107.092 37.2083C107.137 37.1648 107.183 37.1213 107.183 37.0342C107.183 36.9907 107.183 36.9037 107.137 36.8602L107.046 36.9472L107.183 36.9037L107.092 36.9907L107.228 36.9472V36.9907C107.228 36.9037 107.274 36.8167 107.319 36.7731C107.501 36.5555 107.592 36.2509 107.592 35.9898C107.592 35.5981 107.274 35.2935 106.91 35.2935C106.864 35.2935 106.819 35.2935 106.773 35.2935C106.637 35.2935 106.454 35.2935 106.318 35.337H106.227H106.181L106.136 35.25C106.136 35.2065 106.136 35.1194 106.136 35.0759C106.136 34.9889 106.136 34.9454 106.136 34.8583L106.227 34.6842L106.272 34.6407H106.318L106.409 34.7278C106.591 34.9889 106.864 35.1194 107.228 35.163C107.41 35.163 107.547 35.1194 107.683 34.9889C107.865 34.8583 107.956 34.6842 108.047 34.5102C108.138 34.3361 108.138 34.162 108.138 33.9879V33.9444C108.138 33.8574 108.138 33.7704 108.184 33.6833V33.5092L108.229 33.6398L108.32 33.5092L108.366 33.6398C108.503 33.5963 108.548 33.4657 108.548 33.3352C108.503 33.2046 108.366 33.1176 108.229 33.1611L108.275 33.2481V33.1176L108.32 33.2046V33.0741C108.275 33.0741 108.229 33.0741 108.093 32.9C108.002 32.7694 107.865 32.6389 107.683 32.5083C107.501 32.3778 107.274 32.3342 107.046 32.2907C106.819 32.2907 106.637 32.3778 106.5 32.5083C106.363 32.6824 106.272 32.9435 106.227 33.1611C106.227 33.2481 106.181 33.2917 106.181 33.2917H106.09C105.954 33.2917 105.863 33.2481 105.772 33.2046C105.726 33.1611 105.681 33.1176 105.59 33.0305C105.544 32.987 105.499 32.9 105.499 32.8129L105.59 32.7694C105.817 32.7259 105.999 32.5954 106.136 32.4648C106.272 32.3342 106.363 32.1602 106.363 31.9861C106.363 31.7685 106.227 31.5074 106.045 31.3768C105.908 31.2463 105.681 31.1157 105.499 31.0722C105.408 31.0287 105.317 30.9852 105.271 30.9417V30.8981H104.998H104.725H104.862L104.725 30.8546H104.862L104.725 30.8111C104.725 30.8111 104.679 30.8981 104.452 30.9417C104.224 30.9852 103.997 31.0722 103.86 31.2463C103.633 31.3768 103.496 31.6379 103.496 31.8555C103.496 32.0296 103.587 32.1602 103.678 32.2907C103.815 32.4213 103.997 32.5518 104.179 32.6389C104.224 32.6389 104.27 32.6824 104.27 32.7259V32.7694L104.179 32.9L104.042 33.0305L103.997 33.0741L103.951 33.1176L104.133 33.2481L104.315 33.3787L104.361 33.3352L104.179 33.2046L104.361 33.3787C104.452 33.3352 104.543 33.2481 104.588 33.1611C104.725 33.0305 104.77 32.9 104.816 32.7259C104.816 32.6389 104.77 32.5083 104.725 32.4213C104.634 32.3342 104.543 32.2472 104.452 32.2037C104.315 32.1602 104.224 32.0731 104.133 31.9861C104.088 31.9426 104.088 31.8991 104.088 31.8555C104.088 31.725 104.179 31.6379 104.27 31.5944C104.406 31.5074 104.497 31.4639 104.679 31.4204C104.907 31.3768 105.089 31.2898 105.226 31.1157C105.271 31.0287 105.317 30.9417 105.317 30.8546C105.317 30.7241 105.226 30.5935 105.089 30.5935C104.953 30.5935 104.816 30.6805 104.816 30.8111C104.816 30.8981 104.862 31.0287 104.907 31.1157C105.044 31.2898 105.226 31.4204 105.408 31.4639C105.544 31.5074 105.681 31.5944 105.772 31.6815C105.863 31.7685 105.908 31.8555 105.954 31.9426L105.908 32.0731C105.817 32.1602 105.681 32.2472 105.544 32.2907C105.408 32.3342 105.317 32.3778 105.226 32.5083C105.135 32.5954 105.089 32.7259 105.135 32.8129C105.135 32.987 105.18 33.2046 105.271 33.3352C105.317 33.3787 105.362 33.4657 105.453 33.5092L105.635 33.6398C105.817 33.7268 105.999 33.7704 106.227 33.7704C106.363 33.7704 106.545 33.7268 106.637 33.6398C106.773 33.5092 106.864 33.3787 106.864 33.2046C106.864 33.0305 106.91 32.9 107.001 32.7694C107.046 32.7259 107.092 32.6824 107.137 32.6824C107.274 32.6824 107.365 32.7259 107.456 32.8129C107.547 32.8565 107.638 32.9435 107.729 33.0741C107.865 33.2917 108.138 33.4657 108.412 33.4657C108.457 33.4657 108.503 33.4657 108.548 33.4657C108.594 33.4657 108.685 33.4222 108.685 33.3352C108.73 33.2917 108.73 33.2046 108.685 33.1611L108.548 33.0305H108.366C108.275 33.0741 108.184 33.1176 108.093 33.2046C107.956 33.3787 107.911 33.5528 107.911 33.7704V33.9444C107.911 34.1185 107.865 34.2926 107.774 34.4231C107.729 34.5102 107.683 34.5537 107.638 34.5972L107.501 34.6407C107.456 34.6407 107.319 34.5972 107.092 34.3796C106.955 34.2055 106.773 34.1185 106.591 34.1185C106.5 34.1185 106.363 34.162 106.272 34.2055C106.181 34.2926 106.09 34.3796 105.999 34.4667C105.954 34.5537 105.908 34.6407 105.908 34.7278C105.908 34.8148 105.908 34.9018 105.908 34.9889C105.908 35.1194 105.954 35.2935 105.999 35.4241C106.045 35.5111 106.136 35.5981 106.181 35.6417C106.272 35.6852 106.409 35.7287 106.5 35.7287C106.591 35.7287 106.636 35.7287 106.682 35.6852C106.773 35.6417 106.91 35.6417 107.001 35.6417C107.183 35.6417 107.228 35.6852 107.228 35.7287C107.274 35.7722 107.274 35.8592 107.274 35.9028C107.274 36.0768 107.183 36.2509 107.092 36.425C106.955 36.5555 106.864 36.7731 106.864 36.9472C106.864 37.0778 106.91 37.1648 106.955 37.2518C107.046 37.3389 107.183 37.3824 107.319 37.2954C107.41 37.2083 107.456 37.0778 107.365 36.9472C107.228 36.8167 107.046 36.7296 106.864 36.7296C106.728 36.7296 106.591 36.7731 106.454 36.8167C106.363 36.8602 106.227 36.8602 106.136 36.8602C105.999 36.8602 105.908 36.8602 105.772 36.7731C105.726 36.7296 105.681 36.6861 105.681 36.5991C105.681 36.4685 105.772 36.3379 105.817 36.2074C105.863 36.1204 105.908 35.9898 105.908 35.8592C105.908 35.7287 105.863 35.5981 105.726 35.5111C105.59 35.4241 105.453 35.337 105.317 35.337C105.18 35.2935 105.044 35.2935 105.044 35.2935H104.862C104.725 35.2935 104.634 35.337 104.497 35.3805C104.406 35.4241 104.315 35.4676 104.27 35.5546C104.179 35.6417 104.133 35.7287 104.179 35.8592C104.179 35.9898 104.224 36.1639 104.315 36.2509C104.406 36.3815 104.452 36.512 104.497 36.6426V36.6861C104.452 36.7296 104.406 36.7296 104.361 36.7731C104.27 36.8167 104.179 36.8167 104.088 36.8167C103.951 36.8167 103.86 36.8167 103.724 36.7731C103.587 36.7296 103.405 36.6861 103.269 36.6861C103.086 36.6861 102.904 36.7296 102.768 36.7731L102.904 36.9907L103.132 37.1213C103.223 36.9907 103.223 36.9037 103.223 36.7731C103.223 36.6426 103.178 36.512 103.132 36.425C102.995 36.2509 102.95 36.0333 102.904 35.8157C102.904 35.7287 102.95 35.6852 102.95 35.6852C102.95 35.6852 103.041 35.6417 103.223 35.6417C103.314 35.6417 103.405 35.6417 103.496 35.6417H103.633C103.769 35.6417 103.906 35.5981 103.997 35.5546C104.133 35.4676 104.224 35.337 104.27 35.2065C104.315 35.0759 104.315 34.9454 104.315 34.8148C104.315 34.7278 104.315 34.6407 104.27 34.5537L104.224 34.4231L104.179 34.3361C104.133 34.2491 104.042 34.162 103.951 34.0315C103.906 33.9444 103.815 33.9009 103.769 33.8574C103.678 33.8139 103.542 33.7704 103.451 33.7704C103.269 33.7704 103.087 33.8574 102.95 34.0315C102.722 34.2926 102.586 34.3361 102.54 34.3361L102.404 34.2926C102.313 34.2055 102.222 34.1185 102.222 34.0315C102.176 33.9444 102.131 33.8139 102.131 33.7268C102.131 33.5092 102.04 33.3352 101.903 33.1611C101.812 33.0741 101.721 33.0305 101.63 33.0305C101.494 32.987 101.357 33.0741 101.312 33.2046C101.312 33.2481 101.312 33.3352 101.357 33.3787C101.403 33.4222 101.448 33.4657 101.539 33.4657H101.63C101.767 33.4657 101.858 33.4222 101.949 33.3787C102.085 33.2917 102.222 33.1611 102.313 33.0305C102.404 32.9435 102.449 32.8565 102.586 32.7694C102.677 32.6824 102.768 32.6389 102.904 32.6389L103.041 32.7259C103.132 32.8565 103.178 32.987 103.223 33.1176C103.223 33.2917 103.314 33.4222 103.451 33.5528C103.542 33.6398 103.678 33.7268 103.86 33.6833C104.042 33.6833 104.179 33.6398 104.315 33.5528L104.361 33.5092L104.042 33.4657Z" fill="#050B25"/>
<path d="M84.8359 33.2046C84.6993 33.2917 84.2897 33.4657 84.1532 32.9C83.9256 31.7685 83.0154 32.3778 82.7878 32.7694C82.5602 33.1611 82.2872 33.1176 82.2872 33.1176C82.2872 33.1176 82.5602 33.1611 82.6058 33.5963C82.6513 34.0315 83.1519 34.9889 83.8801 34.0315C84.2442 33.5528 84.6083 34.162 84.6994 34.2926L84.7449 34.4231C84.7904 34.5972 84.8359 35.337 84.1987 35.2065C82.9699 34.9889 83.334 35.9898 83.607 36.3379C83.6981 36.4685 83.6981 36.6861 83.607 36.8167C83.8346 36.7296 84.1077 36.7296 84.3352 36.8167C84.7904 36.9472 85.9282 36.9037 85.2455 35.9463C84.8814 35.4676 85.4731 35.3805 85.6096 35.337H85.7006C85.8827 35.3805 86.6109 35.4241 86.2923 35.9028C85.6551 36.9037 86.7929 36.9907 87.2481 36.8167C87.7032 36.6426 87.8852 36.8602 87.8852 36.8602C87.8852 36.8602 87.7032 36.6426 87.9763 36.2944C88.2494 35.9463 88.5224 34.9018 87.2936 35.2065C86.7019 35.337 86.7929 34.6407 86.7929 34.4667C86.7929 34.2926 87.1115 33.7704 87.5211 34.2055C88.3404 35.1194 88.7955 34.0315 88.7955 33.5963C88.7955 33.1611 89.0686 33.0741 89.0686 33.0741C89.0686 33.0741 88.7955 33.1611 88.5224 32.7694C88.2493 32.3778 87.2936 31.812 87.157 32.987C87.1115 33.5528 86.4743 33.3352 86.3378 33.2481C86.2013 33.1611 85.6096 32.5954 86.2013 32.3778C87.3846 31.9861 86.5654 31.2463 86.1102 31.1157C85.6551 30.9852 85.6551 30.7241 85.6551 30.7241C85.6551 30.7241 85.6551 30.9852 85.2 31.0722C84.7449 31.1592 83.8346 31.812 84.9724 32.3342C85.5186 32.5954 85.0179 32.987 84.8814 33.0741L84.8359 33.2046Z" fill="white"/>
<path d="M85.7462 34.7278C86.0648 34.7278 86.3378 34.4667 86.3833 34.1621C86.3833 33.8574 86.1103 33.5963 85.7917 33.5963C85.4731 33.5963 85.2 33.8574 85.2 34.1621C85.2455 34.4667 85.4731 34.7278 85.7462 34.7278Z" fill="#FF1100"/>
<path d="M85.7461 34.7278V34.7713H85.7917C86.1558 34.7713 86.4288 34.5102 86.4288 34.1621V34.1185C86.4288 33.7704 86.1558 33.5093 85.8372 33.5093H85.7917C85.4276 33.5093 85.1545 33.7704 85.1545 34.1185V34.1621C85.1545 34.5102 85.382 34.7713 85.7461 34.8148V34.7278C85.4731 34.6843 85.2455 34.4232 85.2455 34.1621V34.1185C85.2455 33.8574 85.4731 33.5963 85.7917 33.5963H85.8372C86.1102 33.5963 86.3378 33.8574 86.3378 34.1185V34.1621C86.3378 34.4667 86.0647 34.6843 85.7461 34.7278Z" fill="#FF1100"/>
<path d="M85.6551 32.1602C85.8827 32.1602 86.0647 32.0296 86.0647 31.812C86.0647 31.5944 85.9282 31.4203 85.7006 31.4203C85.4731 31.4203 85.291 31.5509 85.291 31.7685C85.291 31.9861 85.4276 32.1166 85.6551 32.1602Z" fill="#FF1100"/>
<path d="M85.6551 32.1602V32.2037H85.7006C85.9282 32.2037 86.1557 32.0296 86.1557 31.812V31.7685C86.1557 31.5509 85.9737 31.3768 85.7461 31.3768H85.7006C85.473 31.3768 85.291 31.5509 85.2455 31.7685C85.2455 31.9861 85.4275 32.1602 85.6551 32.1602V32.1166C85.473 32.1166 85.3365 31.9861 85.3365 31.812C85.3365 31.6379 85.5186 31.5074 85.7006 31.5074C85.8827 31.5074 86.0192 31.6379 86.0647 31.812C86.0647 31.9861 85.8827 32.1166 85.7006 32.1166L85.6551 32.1602Z" fill="#FF1100"/>
<path d="M83.3795 33.8139C83.607 33.8139 83.7891 33.6834 83.7891 33.4658C83.7891 33.2482 83.6526 33.0741 83.425 33.0741C83.1974 33.0741 83.0609 33.2047 83.0154 33.4222C83.0154 33.5963 83.1519 33.7704 83.3795 33.8139Z" fill="#FF1100"/>
<path d="M83.3795 33.8139V33.8574H83.425C83.6526 33.8574 83.8346 33.6834 83.8801 33.4658C83.8801 33.2482 83.6981 33.0306 83.4705 33.0306C83.2429 33.0306 83.0154 33.2047 83.0154 33.4222C83.0154 33.6398 83.1974 33.8574 83.425 33.8574L83.3795 33.8139C83.2429 33.7704 83.1064 33.6398 83.1064 33.4658C83.1064 33.2917 83.2885 33.1611 83.4705 33.1611C83.6526 33.1611 83.7891 33.2917 83.7891 33.4658C83.7436 33.6398 83.607 33.7704 83.3795 33.8139Z" fill="#FF1100"/>
<path d="M88.0673 33.9009C88.2949 33.9009 88.4314 33.7269 88.4314 33.5528C88.4314 33.3352 88.2493 33.2047 88.0673 33.2047C87.8852 33.2047 87.7032 33.3352 87.7032 33.5528C87.7032 33.7269 87.8852 33.9009 88.0673 33.9009Z" fill="#FF1100"/>
<path d="M88.0673 33.9009C88.3404 33.9445 88.5224 33.7704 88.5679 33.5528V33.5093C88.5679 33.2917 88.3859 33.1176 88.1583 33.1176C87.9308 33.1176 87.7487 33.2917 87.7032 33.5093C87.6577 33.7269 87.8397 33.9445 88.0673 33.9009V33.8574C87.8852 33.8574 87.7487 33.7269 87.7487 33.5528C87.7487 33.3787 87.9308 33.2482 88.1128 33.2482C88.2949 33.2482 88.4314 33.3787 88.4314 33.5528V33.5963C88.4314 33.7704 88.2493 33.9009 88.0673 33.9009Z" fill="#FF1100"/>
<path d="M87.157 36.5556C87.3846 36.5556 87.5667 36.425 87.5667 36.2074C87.5667 35.9898 87.4301 35.8157 87.2026 35.8157C86.975 35.7722 86.7929 35.9028 86.7474 36.1204C86.7019 36.338 86.8385 36.512 87.066 36.5556C87.1115 36.5556 87.1115 36.5556 87.157 36.5556Z" fill="#FF1100"/>
<path d="M87.157 36.5556V36.5991H87.2026C87.4301 36.5991 87.6122 36.425 87.6577 36.2074C87.6577 35.9898 87.4756 35.7722 87.2481 35.7722H87.2026C86.975 35.7722 86.7474 35.9463 86.7474 36.1639C86.7474 36.3815 86.9295 36.5556 87.157 36.5556V36.512C86.975 36.512 86.8385 36.3815 86.8385 36.2074C86.8385 36.0333 87.0205 35.9028 87.2026 35.9028C87.3846 35.9028 87.5212 36.0333 87.5212 36.2074C87.5212 36.3815 87.3391 36.512 87.157 36.512V36.5556Z" fill="#FF1100"/>
<path d="M84.2898 36.425C84.5173 36.425 84.6539 36.2509 84.6994 36.0768C84.7449 35.9028 84.5173 35.7287 84.3353 35.6852C84.1077 35.6852 83.9712 35.8157 83.9257 36.0333C83.8801 36.2509 84.0622 36.3815 84.2898 36.425Z" fill="#FF1100"/>
<path d="M84.2897 36.425V36.4685H84.3353C84.5628 36.4685 84.7449 36.2944 84.7904 36.0768V36.0333C84.7904 35.8157 84.6083 35.5981 84.3808 35.5981H84.3353C84.1077 35.5981 83.9256 35.7722 83.8801 35.9898C83.8801 36.2509 84.0622 36.425 84.2897 36.425V36.338C84.1077 36.338 83.9712 36.2074 83.9712 36.0333C83.9712 35.8593 84.1532 35.7287 84.3353 35.7287C84.5173 35.7287 84.6538 35.8593 84.6538 36.0333C84.6538 36.2074 84.4718 36.338 84.3353 36.338L84.2897 36.425Z" fill="#FF1100"/>
<path d="M85.7007 31.9861C85.8827 31.9861 86.0648 31.8555 86.0648 31.6815C86.0648 31.5074 85.9282 31.3333 85.7462 31.3333C85.5641 31.3333 85.3821 31.4639 85.3821 31.6379C85.3366 31.812 85.4731 31.9426 85.7007 31.9861Z" fill="white"/>
<path d="M85.7007 31.9861V32.0296H85.7462C85.9737 32.0296 86.1558 31.8555 86.1558 31.6815C86.1558 31.4639 85.9737 31.2898 85.7917 31.2898C85.5641 31.2898 85.3821 31.4203 85.3821 31.6379V31.6815C85.3821 31.8991 85.5641 32.0296 85.7462 32.0731L85.7007 31.9861C85.5641 31.9426 85.4276 31.812 85.4276 31.6815C85.4276 31.5509 85.5641 31.4203 85.7462 31.4203C85.9282 31.4203 86.0193 31.5509 86.0193 31.725C85.9737 31.812 85.8827 31.9426 85.7007 31.9861Z" fill="white"/>
<path d="M83.3795 33.5528C83.5615 33.5528 83.7436 33.4222 83.7436 33.2482C83.7436 33.0741 83.6071 32.9 83.425 32.9C83.243 32.9 83.1064 33.0306 83.0609 33.2047C83.0154 33.4222 83.1974 33.5528 83.3795 33.5528Z" fill="white"/>
<path d="M83.3795 33.5528V33.5963C83.607 33.5963 83.7891 33.4222 83.7891 33.2482C83.7891 33.0306 83.607 32.9 83.425 32.8565H83.3795C83.1519 32.8565 82.9698 33.0306 82.9698 33.2047V33.2482C82.9698 33.4658 83.1519 33.5963 83.3795 33.6398V33.5093C83.2429 33.5093 83.1064 33.3787 83.1064 33.2482C83.1064 33.1176 83.2429 32.9871 83.425 32.9871C83.5615 32.9871 83.698 33.1176 83.698 33.2482C83.698 33.3787 83.5615 33.5093 83.3795 33.5093V33.5528Z" fill="white"/>
<path d="M88.0673 33.6834C88.2494 33.6834 88.4314 33.5528 88.4314 33.3787C88.4314 33.2047 88.2949 33.0306 88.1128 33.0306C87.9308 33.0306 87.7487 33.1611 87.7487 33.3352C87.7487 33.5093 87.8853 33.6834 88.0673 33.6834Z" fill="white"/>
<path d="M88.0673 33.6834V33.7269H88.1128C88.3404 33.7269 88.5224 33.5528 88.5224 33.3787C88.5224 33.1611 88.3404 33.0306 88.1128 32.9871C87.8852 32.9871 87.7032 33.1176 87.7032 33.3352C87.7032 33.5528 87.8852 33.7269 88.0673 33.6834V33.6398C87.9308 33.6398 87.7942 33.5093 87.7942 33.3787C87.7942 33.2047 87.9308 33.1176 88.1128 33.1176C88.2493 33.1176 88.3859 33.2482 88.3859 33.3787C88.3859 33.5093 88.2493 33.6398 88.0673 33.6398V33.6834Z" fill="white"/>
<path d="M87.157 36.338C87.3391 36.338 87.5211 36.2074 87.5211 36.0333C87.5211 35.8593 87.3846 35.6852 87.2025 35.6852C87.0205 35.6852 86.8384 35.8157 86.8384 35.9898C86.7929 36.1639 86.9295 36.338 87.157 36.338Z" fill="white"/>
<path d="M87.157 36.338V36.3815C87.3846 36.3815 87.5666 36.2074 87.5666 36.0333C87.5666 35.8157 87.3846 35.6417 87.157 35.6417H87.1115C86.884 35.6417 86.7019 35.8157 86.7019 35.9898V36.0333C86.7019 36.2509 86.884 36.3815 87.1115 36.425L87.157 36.338C86.975 36.2944 86.8384 36.1639 86.8384 36.0333C86.8384 35.9028 86.975 35.7722 87.1115 35.7722C87.2481 35.7722 87.3846 35.9028 87.3846 36.0768C87.3846 36.2074 87.2481 36.338 87.157 36.338Z" fill="white"/>
<path d="M84.2898 36.2509C84.4718 36.2509 84.6539 36.1204 84.6539 35.9463C84.6539 35.7722 84.5173 35.5981 84.3353 35.5981C84.1532 35.5981 83.9712 35.7287 83.9712 35.9028C83.9257 36.0768 84.0622 36.2074 84.2898 36.2509Z" fill="white"/>
<path d="M84.2898 36.2509V36.2944C84.5173 36.2944 84.6994 36.1204 84.6994 35.9463C84.6994 35.7287 84.5173 35.5981 84.3353 35.5546C84.1077 35.5546 83.9257 35.6852 83.9257 35.9028C83.9257 36.1204 84.1077 36.2509 84.3353 36.2944V36.2074C84.1532 36.2074 84.0622 36.0768 84.0622 35.9463C84.0622 35.7722 84.1987 35.6852 84.3808 35.6852C84.5173 35.6852 84.6539 35.8157 84.6539 35.9463C84.6539 36.0768 84.5173 36.2074 84.3353 36.2074V36.2509H84.2898Z" fill="white"/>
<path d="M85.7917 34.4667C86.1102 34.4667 86.3833 34.2491 86.3833 33.988C86.4288 33.6833 86.2013 33.4222 85.8827 33.4222C85.5641 33.3787 85.291 33.5963 85.291 33.9009C85.2455 34.2056 85.4731 34.4667 85.7917 34.4667Z" fill="white"/>
<path d="M85.7917 34.4667V34.5102H85.8372C86.1558 34.5102 86.4289 34.2926 86.4744 33.988V33.9445C86.4744 33.6398 86.2013 33.3787 85.8827 33.3787H85.8372C85.5186 33.3787 85.2455 33.6398 85.2455 33.9445C85.2 34.2491 85.4731 34.5102 85.7917 34.4667V34.4232C85.5186 34.4232 85.291 34.2056 85.291 33.9445C85.3365 33.6834 85.5186 33.5093 85.7917 33.5093H85.8372C86.1103 33.5093 86.2923 33.6834 86.3378 33.9445C86.2923 34.2056 86.1103 34.3797 85.8372 34.3797H85.7917V34.4667Z" fill="white"/>
<path d="M95.3494 36.2944L95.3949 44.9981C95.3949 44.9981 96.4417 45.1287 99.491 42.8657C102.54 40.6028 102.358 41.0815 102.358 41.0815L102.54 40.9509L95.3494 36.2944Z" fill="#036288"/>
<path d="M94.5301 39.6454C94.3936 39.7324 93.9839 39.95 93.8474 39.3408C93.6198 38.2093 92.7096 38.8185 92.482 39.2102C92.2545 39.6019 91.9814 39.5148 91.9814 39.5148C91.9814 39.5148 92.2545 39.5583 92.3 39.9935C92.3455 40.4287 92.8461 41.3861 93.5743 40.4287C93.9384 39.95 94.3025 40.5593 94.3936 40.6898L94.4391 40.8204C94.4846 40.9945 94.5301 41.7343 93.8929 41.6037C92.6641 41.3861 93.0282 42.387 93.3013 42.7352C93.3923 42.8657 93.3923 43.0833 93.3013 43.2139C93.5288 43.1269 93.8019 43.1269 94.0295 43.2139C94.4846 43.3445 95.6224 43.3009 94.8942 42.3435C94.5301 41.8648 95.1218 41.7778 95.3038 41.7343H95.3948C95.5769 41.7778 96.3051 41.8213 95.9865 42.3C95.3493 43.3009 96.4872 43.388 96.9423 43.2139C97.3974 43.0398 97.5795 43.2574 97.5795 43.2574C97.5795 43.2574 97.3974 43.0398 97.716 42.6917C98.0346 42.3435 98.2621 41.2991 97.0333 41.6037C96.4416 41.7343 96.5327 41.038 96.5327 40.8639C96.5327 40.6898 96.8513 40.1676 97.2609 40.6028C98.0801 41.4732 98.5352 40.4287 98.5352 39.9935C98.5352 39.5583 98.7628 39.6019 98.7628 39.6019C98.7628 39.6019 98.4897 39.6889 98.2166 39.2972C97.9436 38.9056 96.9878 38.3398 96.8513 39.5148C96.8057 40.0806 96.1686 39.863 96.032 39.7759C95.8955 39.6889 95.3038 39.1232 95.8955 38.9056C97.0788 38.5139 96.2596 37.7741 95.8045 37.6435C95.3493 37.513 95.3493 37.2519 95.3493 37.2519C95.3493 37.2519 95.3493 37.513 94.8942 37.6C94.4391 37.687 93.5288 38.3398 94.6666 38.862C95.2128 39.1232 94.6666 39.5148 94.5301 39.6454Z" fill="white"/>
<path d="M93.0737 40.2111C93.3013 40.2111 93.4833 40.0805 93.4833 39.863C93.4833 39.6454 93.3468 39.4713 93.1192 39.4713C92.8917 39.4713 92.7096 39.6018 92.7096 39.8194C92.6641 40.037 92.8461 40.2111 93.0737 40.2111Z" fill="#FF1100"/>
<path d="M93.0737 40.2111V40.2546H93.1193C93.3468 40.2546 93.5289 40.0805 93.5744 39.863V39.8194C93.5744 39.6018 93.3923 39.4278 93.1648 39.4278H93.1193C92.8917 39.4278 92.6641 39.6018 92.6641 39.8194C92.6641 40.037 92.8462 40.2546 93.0737 40.2546V40.1676C92.8917 40.1676 92.7551 40.037 92.7551 39.863C92.7551 39.6889 92.9372 39.5583 93.1193 39.5583C93.3013 39.5583 93.4378 39.6889 93.4378 39.863V39.9065C93.3923 40.0805 93.2558 40.2111 93.0737 40.2111Z" fill="#FF1100"/>
<path d="M97.7616 40.3417C97.9891 40.3417 98.1712 40.2111 98.1712 39.9935C98.1712 39.7759 98.0346 39.6019 97.8071 39.6019C97.5795 39.6019 97.3975 39.7324 97.3975 39.95C97.3975 40.1676 97.534 40.3417 97.7616 40.3417Z" fill="#036288"/>
<path d="M97.7616 40.3417V40.3852H97.8071C98.0346 40.3852 98.2622 40.2111 98.2622 39.9935V39.95C98.2622 39.7324 98.0802 39.5148 97.8526 39.5148C97.625 39.5148 97.443 39.6889 97.3975 39.9065C97.3519 40.1676 97.534 40.3417 97.7616 40.3417V40.2546C97.5795 40.2546 97.443 40.1241 97.443 39.95C97.443 39.7759 97.625 39.6454 97.8071 39.6454C97.9891 39.6454 98.1257 39.7759 98.1257 39.95C98.1257 40.1241 97.9891 40.2546 97.8071 40.2546L97.7616 40.3417Z" fill="#036288"/>
<path d="M96.8513 42.9963C97.0789 42.9963 97.2609 42.8657 97.2609 42.6481C97.2609 42.4305 97.0788 42.2565 96.8968 42.2565C96.6692 42.2565 96.4872 42.387 96.4872 42.6046C96.4872 42.7787 96.6237 42.9528 96.8513 42.9963Z" fill="#036288"/>
<path d="M96.8513 42.9963V43.0398H96.8968C97.1244 43.0398 97.3064 42.8657 97.3519 42.6481C97.3519 42.4305 97.1699 42.213 96.9423 42.213C96.7147 42.213 96.5327 42.387 96.4872 42.6046V42.6481C96.4872 42.8657 96.6692 43.0398 96.8968 43.0398V42.9528C96.7147 42.9528 96.5782 42.8222 96.5782 42.6481C96.5782 42.4741 96.7603 42.3435 96.9423 42.3435C97.1244 42.3435 97.2609 42.4741 97.2609 42.6481C97.2154 42.8222 97.0333 42.9528 96.8513 42.9963Z" fill="#036288"/>
<path d="M93.984 42.8222C94.2115 42.8222 94.3936 42.6917 94.3936 42.4741C94.3936 42.2565 94.2571 42.0824 94.0295 42.0824C93.8019 42.0824 93.6199 42.213 93.6199 42.4305C93.6199 42.6481 93.7564 42.8222 93.984 42.8222Z" fill="#FF1100"/>
<path d="M93.984 42.8222V42.8657H94.0295C94.257 42.8657 94.4391 42.6917 94.4846 42.4741C94.4846 42.2565 94.3025 42.0389 94.075 42.0389H94.0295C93.8019 42.0389 93.6199 42.213 93.5743 42.4305V42.4741C93.5743 42.6917 93.7564 42.8657 93.984 42.8657V42.7787C93.8019 42.7787 93.6654 42.6481 93.6654 42.4741C93.6654 42.3 93.8474 42.1694 94.0295 42.1694C94.2115 42.1694 94.3481 42.3 94.3481 42.4741C94.3025 42.6481 94.166 42.8222 93.984 42.8222Z" fill="#FF1100"/>
<path d="M93.0737 39.9935C93.2558 40.037 93.4378 39.9065 93.4833 39.7324C93.5289 39.5583 93.3923 39.3843 93.2103 39.3407C93.1648 39.3407 93.1648 39.3407 93.1192 39.3407C92.9372 39.2972 92.7551 39.4278 92.7096 39.6019C92.6641 39.7759 92.8007 39.95 92.9827 39.9935C93.0282 39.9935 93.0282 39.9935 93.0737 39.9935Z" fill="white"/>
<path d="M93.0737 39.9935C93.3013 40.0371 93.4833 39.9065 93.4833 39.6889C93.4833 39.4713 93.3013 39.3408 93.0737 39.2972H93.0282C92.8006 39.2972 92.6186 39.4278 92.6186 39.6454V39.6889C92.6186 39.9065 92.8006 40.0371 93.0282 40.0806L93.0737 39.9935C92.8917 39.95 92.7551 39.8195 92.7551 39.6889C92.7551 39.5583 92.8917 39.4278 93.0737 39.4278C93.2103 39.4278 93.3468 39.5583 93.3468 39.6889C93.3468 39.863 93.2103 39.95 93.0737 39.9935Z" fill="white"/>
<path d="M97.7615 40.1241C97.9436 40.1241 98.1256 39.9935 98.1256 39.8194C98.1256 39.6454 97.9891 39.4713 97.807 39.4713C97.625 39.4713 97.4429 39.6018 97.4429 39.7759C97.4429 39.95 97.5795 40.0805 97.7615 40.1241C97.7615 40.0805 97.7615 40.0805 97.7615 40.1241Z" fill="white"/>
<path d="M97.7615 40.1241V40.1676C97.9891 40.1676 98.1712 39.9935 98.1712 39.8194C98.1712 39.6018 97.9891 39.4278 97.7615 39.4278C97.534 39.4278 97.3519 39.6018 97.3519 39.7759C97.3519 39.9935 97.534 40.1241 97.7615 40.1676V40.1241C97.5795 40.0805 97.4885 39.95 97.4885 39.8194C97.4885 39.6889 97.625 39.5583 97.8071 39.5583C97.9436 39.5583 98.0801 39.6889 98.0801 39.863C98.0346 39.95 97.9436 40.0805 97.7615 40.1241Z" fill="white"/>
<path d="M96.8513 42.7787C97.0334 42.7787 97.2154 42.6481 97.2154 42.4741C97.2154 42.3 97.0789 42.1259 96.8968 42.1259C96.7148 42.0824 96.5327 42.213 96.4872 42.387C96.4417 42.5611 96.5782 42.7352 96.7603 42.7787C96.8058 42.7787 96.8058 42.7787 96.8513 42.7787Z" fill="white"/>
<path d="M96.8513 42.7787V42.8222C97.0788 42.8222 97.2609 42.6481 97.2609 42.4741C97.2609 42.2565 97.0788 42.0824 96.8513 42.0824C96.6237 42.0824 96.4417 42.2565 96.4417 42.4305C96.4417 42.6481 96.6237 42.7787 96.8513 42.8222V42.7352C96.7147 42.7352 96.5782 42.6046 96.5782 42.4741C96.5782 42.3 96.7147 42.213 96.8968 42.213C97.0788 42.213 97.1699 42.3435 97.1699 42.5176C97.1243 42.6046 96.9878 42.7352 96.8513 42.7787Z" fill="white"/>
<path d="M93.984 42.6481C94.166 42.6481 94.3481 42.5176 94.3481 42.3435C94.3481 42.1694 94.2116 41.9954 94.0295 41.9954C93.8475 41.9954 93.6654 42.1259 93.6654 42.3C93.6199 42.4741 93.8019 42.6481 93.984 42.6481Z" fill="white"/>
<path d="M93.984 42.6481V42.6917C94.2115 42.6917 94.3936 42.5176 94.3936 42.3435V42.3C94.3936 42.0824 94.2115 41.9518 94.0295 41.9083H93.984C93.7564 41.9083 93.5743 42.0824 93.5743 42.2565C93.5743 42.5176 93.7564 42.6481 93.984 42.6481V42.5611C93.8474 42.5611 93.7109 42.4305 93.7109 42.2565C93.7109 42.1259 93.8474 41.9954 93.984 41.9954C94.1205 41.9954 94.257 42.1259 94.257 42.2565C94.257 42.387 94.1205 42.5176 93.9384 42.5176L93.984 42.6481Z" fill="white"/>
<path d="M95.4859 40.9074V40.9509H95.5314C95.85 40.9509 96.1231 40.7333 96.1231 40.4287V40.3852C96.1231 40.0806 95.85 39.8195 95.5314 39.8195H95.4859C95.1673 39.8195 94.8943 40.037 94.8488 40.3417V40.3852C94.8488 40.6898 95.1218 40.9509 95.4404 40.9509V40.8639C95.1673 40.8639 94.9398 40.6463 94.9398 40.3852C94.9853 40.1241 95.1673 39.95 95.4404 39.95C95.7135 39.95 95.9411 40.1241 95.9866 40.3852V40.4287C95.9411 40.6898 95.759 40.8639 95.4859 40.8639H95.4404L95.4859 40.9074Z" fill="white"/>
<path d="M107.228 28.1565L97.534 34.5537L104.816 39.3843C104.816 39.3843 109.231 37.0343 109.322 35.5111C109.413 33.988 107.729 28.7222 107.228 28.1565Z" fill="#036288"/>
<path d="M104.042 33.4657C103.906 33.5528 103.496 33.7704 103.36 33.1611C103.132 32.0296 102.222 32.6389 101.994 33.0305C101.767 33.4222 101.494 33.3787 101.494 33.3787C101.494 33.3787 101.767 33.4222 101.812 33.8574C101.858 34.2926 102.358 35.25 103.087 34.2926C103.451 33.8139 103.815 34.4231 103.906 34.5537L103.951 34.6842C103.997 34.8583 104.042 35.5981 103.405 35.4676C102.176 35.25 102.54 36.2509 102.813 36.5991C102.904 36.7296 102.904 36.9472 102.813 37.0778C103.041 36.9907 103.314 36.9907 103.587 37.0778C104.042 37.2083 105.18 37.1648 104.497 36.2074C104.133 35.7287 104.725 35.6417 104.862 35.5981H104.953C105.135 35.5981 105.863 35.6852 105.544 36.1639C104.907 37.1648 106.045 37.2518 106.5 37.0778C106.955 36.9037 107.137 37.1213 107.137 37.1213C107.137 37.1213 106.955 36.9037 107.228 36.5555C107.501 36.2074 107.729 35.2065 106.546 35.4676C105.954 35.5981 106.045 34.9018 106.045 34.7278C106.045 34.5537 106.363 34.0315 106.773 34.4667C107.592 35.337 108.047 34.2926 108.047 33.8574C108.047 33.4222 108.321 33.3352 108.321 33.3352C108.321 33.3352 108.047 33.4222 107.774 33.0305C107.501 32.6389 106.546 32.0731 106.409 33.2481C106.363 33.8139 105.726 33.5963 105.59 33.5092C105.453 33.4222 104.862 32.8565 105.453 32.6389C106.637 32.2472 105.817 31.5074 105.362 31.3768C104.907 31.2463 104.953 30.9852 104.953 30.9852C104.953 30.9852 104.953 31.2463 104.497 31.3333C104.042 31.4204 103.132 32.0731 104.27 32.5954C104.816 32.8565 104.315 33.2481 104.179 33.3352L104.042 33.4657Z" fill="white"/>
<path d="M104.953 34.9889C105.317 34.9889 105.59 34.7713 105.59 34.4232C105.59 34.075 105.362 33.8139 104.998 33.8139C104.634 33.8139 104.406 34.1185 104.406 34.4667C104.452 34.6843 104.68 34.9454 104.953 34.9889Z" fill="#036288"/>
<path d="M104.953 34.9889C105.317 35.0324 105.635 34.7713 105.635 34.4232V34.3796C105.635 34.0315 105.362 33.7704 105.044 33.7269H104.998C104.634 33.7269 104.361 34.0315 104.361 34.3361V34.3796C104.361 34.7278 104.634 34.9889 104.953 34.9889V34.9454C104.679 34.9019 104.452 34.6843 104.452 34.4232C104.452 34.1621 104.679 33.9009 104.998 33.9009H105.044C105.317 33.9009 105.544 34.1621 105.544 34.4232V34.4667C105.499 34.7278 105.271 34.9454 104.953 34.9889Z" fill="#036288"/>
<path d="M104.862 32.3778C105.089 32.4213 105.271 32.2907 105.317 32.0731C105.362 31.8555 105.226 31.6815 104.998 31.6379C104.953 31.6379 104.953 31.6379 104.907 31.6379C104.679 31.6379 104.497 31.7685 104.497 31.9861C104.452 32.2037 104.634 32.3778 104.862 32.3778C104.816 32.3778 104.816 32.3778 104.862 32.3778Z" fill="#036288"/>
<path d="M104.862 32.3778V32.4213C105.089 32.4213 105.317 32.2472 105.317 32.0296C105.317 31.812 105.135 31.5944 104.907 31.5944H104.862C104.634 31.5944 104.452 31.7685 104.406 31.9861V32.0296C104.406 32.2472 104.588 32.4648 104.816 32.4648L104.862 32.3778C104.68 32.3342 104.497 32.2037 104.497 32.0296C104.497 31.8555 104.68 31.725 104.862 31.725C105.044 31.725 105.18 31.8555 105.18 32.0296C105.135 32.2472 104.998 32.3778 104.862 32.3778Z" fill="#036288"/>
<path d="M102.54 34.0315C102.768 34.0315 102.95 33.9009 102.95 33.6834C102.95 33.4658 102.813 33.2917 102.586 33.2917C102.358 33.2917 102.176 33.4222 102.176 33.6398C102.176 33.8574 102.358 34.0315 102.54 34.0315Z" fill="#036288"/>
<path d="M102.54 34.0315V34.075C102.768 34.075 102.95 33.9009 102.996 33.6834C102.996 33.4658 102.813 33.2482 102.586 33.2482H102.54C102.313 33.2482 102.131 33.4222 102.085 33.6398V33.6834C102.085 33.9009 102.267 34.075 102.495 34.075V33.988C102.313 33.988 102.176 33.8574 102.176 33.6834C102.176 33.5093 102.358 33.3787 102.54 33.3787C102.722 33.3787 102.859 33.5093 102.859 33.6834C102.859 33.8574 102.722 34.0315 102.54 34.0315Z" fill="#036288"/>
<path d="M107.274 34.1621C107.501 34.1621 107.683 34.0315 107.683 33.8139C107.683 33.5963 107.547 33.4222 107.319 33.4222C107.092 33.4222 106.91 33.5528 106.91 33.7704C106.91 33.988 107.046 34.1621 107.274 34.1621Z" fill="#036288"/>
<path d="M107.274 34.1621V34.2056C107.501 34.2056 107.729 34.0315 107.729 33.8139C107.729 33.5963 107.547 33.4222 107.319 33.4222H107.274C107.046 33.4222 106.864 33.5963 106.819 33.8139C106.819 34.0315 107.001 34.2491 107.228 34.2491L107.274 34.1621C107.046 34.1185 106.91 33.988 106.91 33.8139C106.91 33.6398 107.092 33.5093 107.274 33.5093C107.456 33.5093 107.592 33.6398 107.592 33.8139C107.547 33.988 107.41 34.1185 107.274 34.1621Z" fill="#036288"/>
<path d="M106.318 36.8167C106.546 36.8167 106.728 36.6861 106.728 36.4685C106.728 36.2509 106.591 36.1204 106.363 36.0769C106.136 36.0333 105.954 36.1639 105.908 36.3815C105.863 36.5991 105.999 36.7731 106.227 36.8167C106.272 36.8167 106.318 36.8167 106.318 36.8167Z" fill="#036288"/>
<path d="M106.318 36.8167V36.8602H106.363C106.591 36.8602 106.819 36.6861 106.819 36.4685C106.819 36.2509 106.637 36.0333 106.409 36.0333C106.181 36.0333 105.999 36.2074 105.954 36.425V36.4685C105.954 36.6861 106.136 36.9037 106.363 36.9037L106.318 36.8167C106.181 36.7731 106.045 36.6426 106.045 36.4685C106.045 36.2944 106.227 36.1639 106.409 36.1639C106.591 36.1639 106.728 36.2944 106.728 36.4685C106.682 36.6426 106.546 36.7731 106.318 36.8167Z" fill="#036288"/>
<path d="M103.451 36.6426C103.678 36.6426 103.86 36.512 103.86 36.2944C103.86 36.0768 103.724 35.9028 103.496 35.9028C103.269 35.9028 103.087 36.0333 103.087 36.2509C103.087 36.4685 103.269 36.6426 103.451 36.6426Z" fill="#036288"/>
<path d="M103.451 36.6426V36.6861H103.496C103.724 36.6861 103.906 36.512 103.951 36.2944C103.951 36.0768 103.769 35.8593 103.542 35.8593H103.496C103.269 35.8593 103.087 36.0333 103.041 36.2509C103.041 36.4685 103.223 36.6861 103.451 36.6861V36.5991C103.269 36.5991 103.132 36.4685 103.132 36.2944C103.132 36.1204 103.314 35.9898 103.496 35.9898C103.678 35.9898 103.815 36.1204 103.815 36.2944C103.815 36.4685 103.633 36.5991 103.451 36.5991V36.6426Z" fill="#036288"/>
<path d="M104.862 32.2037C105.044 32.2037 105.226 32.0731 105.226 31.8991C105.226 31.725 105.089 31.5509 104.862 31.5509C104.679 31.5509 104.497 31.6815 104.497 31.8555C104.543 32.0296 104.679 32.2037 104.862 32.2037Z" fill="white"/>
<path d="M104.862 32.2037V32.2472C105.089 32.2472 105.271 32.0731 105.271 31.8991C105.271 31.6815 105.089 31.5074 104.862 31.5074H104.816C104.588 31.5074 104.406 31.6815 104.406 31.8555C104.406 32.0731 104.588 32.2037 104.816 32.2472V32.1602C104.68 32.1602 104.543 32.0296 104.543 31.8991C104.543 31.7685 104.68 31.6379 104.816 31.6379C104.998 31.6379 105.089 31.7685 105.089 31.8991H105.135C105.135 32.0296 104.998 32.1602 104.862 32.2037Z" fill="white"/>
<path d="M102.54 33.8139C102.722 33.8139 102.904 33.6833 102.904 33.5092C102.904 33.3352 102.768 33.1611 102.586 33.1611C102.586 33.1611 102.586 33.1611 102.54 33.1611C102.358 33.1176 102.176 33.2481 102.131 33.4222C102.085 33.5963 102.222 33.7703 102.404 33.8139C102.495 33.8139 102.54 33.8139 102.54 33.8139Z" fill="white"/>
<path d="M102.54 33.8139V33.8574C102.768 33.8574 102.95 33.6834 102.95 33.5093C102.95 33.2917 102.768 33.1611 102.586 33.1176H102.54C102.313 33.1176 102.131 33.2917 102.131 33.4658C102.131 33.6834 102.313 33.8574 102.495 33.8574L102.54 33.8139C102.358 33.7704 102.222 33.6398 102.222 33.4658C102.222 33.2917 102.358 33.2047 102.54 33.2047C102.677 33.2047 102.813 33.3352 102.813 33.4658C102.813 33.5963 102.677 33.7269 102.495 33.7269L102.54 33.8139Z" fill="white"/>
<path d="M107.274 33.9444C107.456 33.9879 107.638 33.8574 107.683 33.6833C107.729 33.5092 107.592 33.3352 107.41 33.2916C107.365 33.2916 107.365 33.2916 107.319 33.2916C107.137 33.2481 106.955 33.3787 106.91 33.5527C106.864 33.7268 107.001 33.9009 107.183 33.9444C107.228 33.9444 107.228 33.9444 107.274 33.9444Z" fill="white"/>
<path d="M107.274 33.9445V33.988H107.319C107.547 33.988 107.729 33.8139 107.729 33.6398C107.729 33.4222 107.547 33.2917 107.319 33.2482C106.91 33.2482 106.91 33.7269 106.91 33.5963C106.91 33.8139 107.092 33.988 107.274 33.9445L107.319 33.9009C107.183 33.9009 107.046 33.7704 107.046 33.6398C107.046 33.4658 107.183 33.3787 107.365 33.3787C107.501 33.3787 107.638 33.5093 107.638 33.6834C107.638 33.8139 107.501 33.9445 107.365 33.9445H107.274Z" fill="white"/>
<path d="M106.318 36.5991C106.5 36.5991 106.682 36.4685 106.682 36.2944C106.682 36.1204 106.545 35.9463 106.363 35.9463C106.181 35.9463 105.999 36.0768 105.999 36.2509C105.999 36.425 106.136 36.5991 106.318 36.5991Z" fill="white"/>
<path d="M106.318 36.5991V36.6426C106.546 36.6426 106.728 36.4685 106.728 36.2944C106.728 36.0768 106.546 35.9028 106.318 35.9028C106.09 35.9028 105.908 36.0768 105.908 36.2509C105.908 36.4685 106.09 36.5991 106.272 36.6426L106.318 36.5991C106.181 36.5555 106.045 36.425 106.045 36.2944C106.045 36.1204 106.181 36.0333 106.363 36.0333C106.5 36.0333 106.637 36.1639 106.637 36.338C106.591 36.425 106.5 36.5555 106.318 36.5991Z" fill="white"/>
<path d="M103.451 36.4685C103.633 36.4685 103.815 36.338 103.815 36.1639C103.815 35.9898 103.678 35.8157 103.496 35.8157C103.314 35.8157 103.132 35.9463 103.132 36.1204C103.132 36.2944 103.269 36.4685 103.451 36.4685Z" fill="white"/>
<path d="M103.451 36.4685C103.678 36.512 103.86 36.338 103.86 36.1639C103.86 35.9463 103.678 35.8157 103.496 35.7722C103.269 35.7722 103.087 35.9463 103.087 36.1204C103.087 36.338 103.269 36.512 103.451 36.4685V36.425C103.314 36.425 103.178 36.2944 103.178 36.1639C103.178 35.9898 103.314 35.9028 103.496 35.9028C103.633 35.9028 103.769 36.0333 103.769 36.2074C103.769 36.338 103.633 36.4685 103.496 36.4685H103.451Z" fill="white"/>
<path d="M104.953 34.7278C105.271 34.7278 105.499 34.5102 105.499 34.2056C105.499 33.9009 105.271 33.6833 104.953 33.6833C104.634 33.6833 104.406 33.9009 104.406 34.1621C104.452 34.4667 104.68 34.7278 104.953 34.7278Z" fill="white"/>
<path d="M104.953 34.7278V34.7713H104.998C105.317 34.7713 105.59 34.5537 105.635 34.2056V34.1621C105.635 33.8574 105.362 33.5963 105.044 33.5963H104.998C104.68 33.5963 104.406 33.8139 104.406 34.1185V34.1621C104.406 34.4667 104.68 34.7278 104.998 34.7278V34.6408C104.725 34.6408 104.497 34.4232 104.497 34.1621C104.543 33.9009 104.725 33.7269 104.998 33.7269H105.044C105.317 33.7269 105.544 33.9445 105.544 34.2056C105.499 34.4667 105.317 34.6408 105.044 34.6408H104.998L104.953 34.7278Z" fill="white"/>
<path d="M98.8538 29.0704V29.3315C99.4455 29.3315 100.083 29.288 100.674 29.1139C100.902 29.0704 101.084 28.9834 101.312 28.8528C101.403 28.8093 101.448 28.7222 101.539 28.6352C101.63 28.5482 101.63 28.4611 101.63 28.3306C101.63 28.2435 101.585 28.113 101.539 28.0259C101.448 27.8954 101.266 27.8084 101.129 27.7213C100.401 27.4602 99.6731 27.3732 98.8993 27.3732C98.3077 27.3732 97.6705 27.4167 97.0788 27.5908C96.8513 27.6343 96.6692 27.7213 96.4872 27.8519C96.3961 27.8954 96.3506 27.9824 96.2596 28.0259C96.2141 28.113 96.1686 28.2 96.1686 28.3306C96.1686 28.4176 96.2141 28.5482 96.2596 28.6352C96.3506 28.7658 96.5327 28.8528 96.6692 28.9398C97.3974 29.2009 98.1256 29.288 98.8993 29.288V28.7658C98.3532 28.7658 97.7615 28.7222 97.2154 28.5917C97.0333 28.5482 96.8968 28.5047 96.7602 28.4176L96.6692 28.3741L96.6237 28.4176H96.6692V28.3741L96.6237 28.4176H96.7147L96.7602 28.3741C96.9878 28.2435 97.2609 28.1565 97.534 28.113C97.9891 28.0259 98.4442 27.9824 98.8993 27.9824C99.4455 27.9824 100.037 28.0259 100.538 28.1565C100.72 28.2 100.856 28.2435 100.993 28.3306L101.038 28.3741L101.084 28.3306H101.038V28.3741L101.084 28.3306H101.038V28.3741H101.129L101.038 28.3306L100.993 28.3741C100.765 28.5046 100.492 28.5917 100.219 28.6352C99.7641 28.7222 99.309 28.7658 98.8083 28.7658L98.8538 29.0704Z" fill="#FF1100"/>
<path d="M98.8538 29.0703V29.1574C99.4455 29.1574 100.037 29.1139 100.629 28.9398C100.811 28.8963 100.993 28.8092 101.175 28.7222C101.312 28.6352 101.403 28.5046 101.403 28.374C101.403 28.2435 101.312 28.1129 101.175 28.0259C100.447 27.6778 99.6275 27.5472 98.8538 27.5907C98.2622 27.5907 97.6705 27.6342 97.0788 27.8083C96.8968 27.8518 96.7147 27.9389 96.5327 28.0259C96.3961 28.1129 96.3051 28.2 96.3051 28.374C96.3051 28.5046 96.3961 28.6352 96.5327 28.7222C97.2609 29.0268 98.0801 29.2009 98.8538 29.1574V28.9398C98.2622 28.9398 97.716 28.8963 97.1243 28.7657C96.9423 28.7222 96.7602 28.6787 96.6237 28.5916C96.5327 28.5046 96.4872 28.4611 96.4872 28.4176C96.4872 28.3741 96.5327 28.3305 96.6237 28.2435C97.3064 27.9389 98.0801 27.8083 98.8538 27.8518C99.4455 27.8518 99.9917 27.8953 100.583 28.0259C100.765 28.0694 100.902 28.1565 101.084 28.2C101.175 28.287 101.22 28.3305 101.22 28.374C101.22 28.4176 101.175 28.4611 101.084 28.5481C100.401 28.8528 99.6275 28.9833 98.8993 28.9398V29.0703H98.8538Z" fill="#FF1100"/>
<path d="M98.8538 29.0268V29.1574C99.4455 29.1574 100.037 29.1139 100.629 28.9833C100.811 28.9398 100.993 28.8528 101.175 28.7657C101.357 28.6787 101.448 28.4611 101.403 28.287C101.357 28.2 101.266 28.1129 101.175 28.0694C100.447 27.7648 99.6275 27.5907 98.8538 27.6342C98.2622 27.6342 97.6705 27.6778 97.0788 27.8518C96.8968 27.8954 96.7147 27.9824 96.5327 28.0694C96.3506 28.1565 96.2596 28.3741 96.3051 28.5481C96.3506 28.6352 96.4417 28.7222 96.5327 28.7657C97.2609 29.0704 98.0801 29.2444 98.8538 29.2009V28.9833C98.2622 28.9833 97.716 28.9398 97.1243 28.8092C96.9423 28.7657 96.7602 28.7222 96.6237 28.6352C96.5327 28.5481 96.4872 28.5046 96.4872 28.4611C96.4872 28.4176 96.5327 28.3741 96.6237 28.287C97.3064 27.9824 98.0801 27.8518 98.8538 27.8954C99.4455 27.8954 99.9917 27.9389 100.583 28.0694C100.765 28.1129 100.902 28.2 101.084 28.2435C101.175 28.3305 101.22 28.3741 101.22 28.4176C101.22 28.4611 101.175 28.5046 101.084 28.5916C100.401 28.8963 99.6276 29.0268 98.8993 28.9833V29.0268H98.8538Z" fill="#036288"/>
<path d="M97.443 31.0287C97.443 31.2898 96.5327 31.5074 95.3949 31.5074C94.2571 31.5074 93.3468 31.2898 93.3468 31.0287C93.3468 30.7676 94.2571 30.55 95.3949 30.55C96.5327 30.55 97.443 30.7676 97.443 31.0287Z" fill="#B89500"/>
<path d="M97.3064 30.5065C96.0776 30.1148 94.7577 30.1148 93.4833 30.5065C93.4833 30.5065 93.3468 30.3324 93.7564 30.2018C94.3481 30.0713 94.9397 30.0278 95.5314 29.9843C96.0776 29.9843 96.6237 30.0713 97.1699 30.2454L97.3064 30.3324V30.5065Z" fill="#B89500"/>
<path d="M95.3493 27.1556C94.7577 27.6778 94.7122 29.1574 94.7122 29.1574C94.4846 27.2861 93.3468 27.2861 93.3468 27.2861C93.6198 27.9824 93.7564 28.6787 93.8019 29.4185C93.4378 28.0259 91.8448 27.9824 91.8448 27.9824C93.1647 29.1139 93.1647 30.1148 93.1647 30.1148C93.8474 29.8102 94.5756 29.6797 95.3493 29.7232H95.3948C96.1231 29.6797 96.8968 29.8537 97.5795 30.1148C97.5795 30.1148 97.5795 29.1139 98.8993 27.9824C98.8993 27.9824 97.3064 28.0695 96.9423 29.4185C96.9878 28.6787 97.1243 27.9824 97.3974 27.2861C97.3974 27.2861 96.2596 27.2861 96.032 29.1574C96.032 29.1574 95.9865 27.6343 95.3493 27.1556Z" fill="#B89500"/>
<path d="M98.8994 40.3852C99.309 40.3852 99.6731 40.0805 99.7186 39.6889C99.7641 39.2972 99.4455 38.9491 99.0359 38.9055C98.6263 38.9055 98.2622 39.2102 98.2167 39.6018C98.1712 39.9935 98.4898 40.3417 98.8994 40.3852Z" fill="#FF1100"/>
<path d="M98.8538 40.3852C99.2635 40.3852 99.6276 40.0805 99.6731 39.6889C99.7186 39.2972 99.4 38.9491 98.9904 38.9055C98.5808 38.862 98.2167 39.1667 98.1711 39.5583C98.1711 39.6018 98.1711 39.6018 98.1711 39.6454C98.1256 39.9935 98.4442 40.3417 98.8538 40.3852Z" fill="#036288"/>
<path d="M95.4404 40.8639C95.759 40.8639 95.9866 40.6463 96.0321 40.3852C96.0321 40.0806 95.8045 39.863 95.5314 39.8194C95.2583 39.7759 94.9853 40.037 94.9398 40.2981C94.9398 40.6028 95.1673 40.8204 95.4404 40.8639Z" fill="white"/>
<path d="M98.8083 37.6C99.1269 37.6 99.3545 37.3824 99.3545 37.1213C99.3545 36.8602 99.1269 36.5991 98.8538 36.5991C98.5808 36.5991 98.3077 36.8167 98.3077 37.0778C98.2622 37.3824 98.4897 37.6 98.8083 37.6Z" fill="#FF1100"/>
<path d="M98.7628 37.6C99.0814 37.6 99.3089 37.3824 99.3089 37.1213C99.3089 36.8602 99.0814 36.5991 98.8083 36.5991C98.5352 36.5991 98.2621 36.8167 98.2621 37.0778C98.2621 37.3824 98.4897 37.6 98.7628 37.6Z" fill="#036288"/>
<path d="M95.3948 38.5139C95.6224 38.5139 95.8045 38.3398 95.8045 38.1222C95.8045 37.9046 95.6224 37.7306 95.3948 37.7306C95.1673 37.7306 94.9852 37.9046 94.9852 38.0787C94.9852 38.3398 95.1673 38.5139 95.3948 38.5139Z" fill="white"/>
<path d="M95.3039 36.4685L102.358 40.9945L105.089 39.2102L97.9891 34.7278L107.319 28.5482L106.728 26.938L104.497 26.8945L95.3494 32.8565L86.2013 26.938H84.0167L83.4705 28.5047L92.4821 34.6408L85.6096 39.1667L88.2949 40.951L95.3039 36.4685Z" fill="white"/>
<path d="M95.3039 36.4685L102.358 40.9945L105.089 39.2102L97.9891 34.7278L107.319 28.5482L106.728 26.938L104.497 26.8945L95.3494 32.8565L86.2013 26.938H84.0167L83.4705 28.5047L92.4821 34.6408L85.6096 39.1667L88.2949 40.951L95.3039 36.4685Z" stroke="black" stroke-width="0.5"/>
<path d="M83.9257 26.9815L85.5186 22.238C85.5186 22.238 85.9282 19.888 89.0686 19.888H89.2507H102.131C102.131 19.888 104.406 19.6269 105.317 22.3685L105.362 22.4991L106.864 26.9815H83.9257Z" fill="#B89500"/>
<path d="M105.726 23.9352H98.4442C98.4442 23.9352 98.1256 23.8916 98.0801 23.8481C98.0346 23.8046 97.8981 23.5435 97.8981 23.5435C97.8981 23.5435 97.807 23.2824 97.6705 23.7176L97.5795 24.0657C97.5795 24.0657 97.4885 24.4139 97.3974 23.8046C97.3064 23.1953 97.2609 22.9778 97.2609 22.9778C97.2609 22.9778 97.0333 22.5861 97.0333 23.0213V24.9796C97.0333 24.9796 97.0333 25.5018 96.9423 25.5018C96.8513 25.5018 96.7147 25.5889 96.7147 25.1972V22.0203C96.7147 22.0203 96.7603 21.6722 96.4872 21.6287C96.4872 21.6287 96.3051 21.6287 96.3051 21.9333V25.6759C96.3051 25.6759 96.3506 25.8935 96.032 25.8935C96.032 25.8935 95.941 25.937 95.8955 25.6324V21.4546C95.8955 21.4546 95.8045 20.9324 95.4859 21.3676V25.937C95.4859 25.937 95.5314 26.2852 95.2583 26.2852M85.0179 23.9352H92.1179C92.1179 23.9352 92.4365 23.8916 92.482 23.8481C92.5276 23.8046 92.6641 23.5435 92.6641 23.5435C92.6641 23.5435 92.7551 23.2824 92.8917 23.7176L92.9827 24.0657C92.9827 24.0657 93.0282 24.4139 93.1647 23.8046C93.3013 23.1953 93.3013 22.9778 93.3013 22.9778C93.3013 22.9778 93.5288 22.5861 93.5288 23.0213V24.9796C93.5288 24.9796 93.5288 25.5018 93.6199 25.5018C93.7109 25.5018 93.8474 25.5889 93.8474 25.1972V22.0203C93.8474 22.0203 93.8019 21.6722 94.075 21.6287C94.075 21.6287 94.257 21.6287 94.257 21.9333V25.6759C94.257 25.6759 94.2115 25.8935 94.5301 25.8935C94.5301 25.8935 94.6211 25.937 94.6667 25.6324V21.4546C94.6667 21.4546 94.8032 20.9324 95.1218 21.3676V25.937C95.1218 25.937 95.0763 26.2852 95.3494 26.2852" stroke="black" stroke-width="0.3"/>
<path d="M83.8801 26.9815H106.864" stroke="black" stroke-width="0.72"/>
<path d="M90.6615 26.1111L91.1167 26.5028M86.2923 26.5028L86.7474 26.1111" stroke="black" stroke-width="0.18"/>
<path d="M86.702 22.1074C86.6109 22.1945 86.4744 22.2815 86.3379 22.3685H86.2468V26.5028L88.477 25.8065C88.477 25.8065 88.6135 26.0676 88.9321 25.8065H88.9776L91.1167 26.4593V22.3685H91.0712C90.9346 22.2815 90.7526 22.1945 90.6616 22.0639" fill="white"/>
<path d="M86.702 22.1509C86.6109 22.238 86.4744 22.325 86.3379 22.4121H86.2468V26.5028L88.477 25.8065C88.477 25.8065 88.6135 26.0241 88.8866 25.8065H88.9321L91.0712 26.4593V22.3685H91.0257C90.8891 22.2815 90.7071 22.1945 90.6161 22.0639" stroke="black" stroke-width="0.3"/>
<path d="M86.884 22.0639C86.884 22.0639 87.157 22.1945 87.6122 21.8463C88.0673 21.4982 88.7045 21.8028 88.7045 22.0639V25.5019C88.7045 25.5019 88.2038 24.9797 87.4301 25.676C87.2481 25.8936 87.0205 26.0241 86.7474 26.0676V22.0204L86.884 22.0639Z" fill="white"/>
<path d="M86.884 22.1074C86.884 22.1074 87.157 22.2379 87.6122 21.8898C88.0673 21.5416 88.659 21.8463 88.7045 22.1074V25.5453C88.7045 25.5453 88.2038 25.0231 87.4301 25.7194C87.2481 25.937 87.0205 26.0676 86.7474 26.1111V22.0639L86.884 22.1074Z" stroke="black" stroke-width="0.3"/>
<path d="M90.4795 22.0639C90.4795 22.0639 90.2064 22.1945 89.7513 21.8463C89.2962 21.4982 88.659 21.8028 88.659 22.0639V25.5019C88.659 25.5019 89.1596 24.9797 89.9334 25.676C90.1154 25.8936 90.343 26.0241 90.616 26.0676V21.9769L90.4795 22.0639Z" fill="white"/>
<path d="M90.4795 22.1074C90.4795 22.1074 90.2064 22.2379 89.7513 21.8898C89.2962 21.5416 88.7045 21.8463 88.659 22.1074V25.5453C88.659 25.5453 89.1596 25.0231 89.9334 25.7194C90.1154 25.937 90.343 26.0676 90.616 26.1111V22.0639L90.4795 22.1074Z" stroke="black" stroke-width="0.3"/>
<path d="M86.2468 22.4121C86.4744 22.4121 86.6564 22.2815 86.702 22.0639V26.1111L86.2468 26.5028V22.4121Z" fill="#FF1100"/>
<path d="M86.2468 22.4121C86.4289 22.4121 86.6109 22.2815 86.6564 22.0639V26.1111L86.2468 26.5028V22.4121Z" stroke="black" stroke-width="0.24"/>
<path d="M91.0712 22.3685C90.8436 22.3685 90.6615 22.238 90.616 22.0204V26.1111L91.0712 26.5028V22.3685Z" fill="#FF1100"/>
<path d="M91.0712 22.3685C90.8891 22.3685 90.7071 22.238 90.6616 22.0204V26.1111L91.0712 26.5028V22.3685Z" stroke="black" stroke-width="0.3"/>
<path d="M88.4314 25.7629C88.4769 25.6759 88.5224 25.6324 88.6134 25.5889L88.4314 25.7629Z" fill="white"/>
<path d="M88.4769 25.7629C88.5224 25.6759 88.568 25.6324 88.659 25.5889" stroke="black" stroke-width="0.18"/>
<path d="M88.932 25.8065C88.8865 25.7194 88.841 25.6324 88.75 25.5889L88.932 25.8065Z" fill="white"/>
<path d="M88.932 25.8065C88.8865 25.7194 88.841 25.6324 88.75 25.5889" stroke="black" stroke-width="0.18"/>
<path d="M103.906 26.024L104.361 26.4157M99.5365 26.4157L99.9916 26.024" stroke="black" stroke-width="0.18"/>
<path d="M99.9462 22.0639C99.8551 22.1509 99.7186 22.238 99.5821 22.325H99.491V26.4593L101.721 25.763C101.721 25.763 101.858 26.0241 102.176 25.763H102.222L104.361 26.4158V22.325H104.315C104.133 22.2815 103.997 22.1509 103.906 22.0204" fill="white"/>
<path d="M99.9462 22.0639C99.8551 22.1509 99.7186 22.238 99.5821 22.325H99.491V26.4158L101.721 25.7195C101.721 25.7195 101.858 25.9371 102.176 25.7195H102.222L104.361 26.3722V22.325H104.315C104.133 22.2815 103.997 22.1509 103.906 22.0204" stroke="black" stroke-width="0.3"/>
<path d="M100.128 21.9768C100.128 21.9768 100.401 22.1074 100.856 21.7592C101.312 21.4111 101.949 21.7157 101.949 21.9768V25.4148C101.949 25.4148 101.448 24.8926 100.674 25.5889C100.492 25.8065 100.265 25.937 99.9917 25.9805V21.8898L100.128 21.9768Z" fill="white"/>
<path d="M100.128 22.0203C100.128 22.0203 100.401 22.1509 100.856 21.8028C101.312 21.4546 101.903 21.7592 101.949 22.0203V25.4583C101.949 25.4583 101.448 24.9361 100.674 25.6324C100.492 25.85 100.265 25.9805 99.9917 26.024V21.9768L100.128 22.0203Z" stroke="black" stroke-width="0.3"/>
<path d="M103.724 21.9769C103.724 21.9769 103.451 22.1074 102.996 21.7593C102.54 21.4111 101.949 21.7593 101.949 22.0204V25.4584C101.949 25.4584 102.449 24.9361 103.223 25.6324C103.405 25.85 103.633 25.9806 103.906 26.0241V21.9769H103.724Z" fill="white"/>
<path d="M103.724 22.0203C103.724 22.0203 103.451 22.1509 102.996 21.8028C102.54 21.4546 101.949 21.7592 101.949 22.0203V25.4583C101.949 25.4583 102.449 24.9361 103.223 25.6324C103.405 25.85 103.633 25.9805 103.906 26.024V21.9768L103.724 22.0203Z" stroke="black" stroke-width="0.3"/>
<path d="M99.491 22.325C99.7186 22.325 99.9006 22.1945 99.9462 21.9769V26.0241L99.491 26.4158V22.325Z" fill="#FF1100"/>
<path d="M99.491 22.325C99.6731 22.325 99.8551 22.1945 99.9006 21.9769V26.0241L99.491 26.4158V22.325Z" stroke="black" stroke-width="0.24"/>
<path d="M104.361 22.2815C104.133 22.2815 103.951 22.1509 103.906 21.9333V25.9806L104.361 26.3722V22.2815Z" fill="#FF1100"/>
<path d="M104.315 22.2815C104.133 22.2815 103.951 22.1509 103.906 21.9769V26.0241L104.315 26.4158V22.2815Z" stroke="black" stroke-width="0.3"/>
<path d="M101.676 25.6759C101.721 25.5889 101.767 25.5018 101.858 25.4583L101.676 25.6759Z" fill="white"/>
<path d="M101.721 25.6759C101.767 25.5889 101.812 25.5453 101.903 25.5018" stroke="black" stroke-width="0.18"/>
<path d="M102.176 25.7194C102.131 25.6324 102.085 25.5453 101.994 25.5018L102.176 25.7194Z" fill="white"/>
<path d="M102.176 25.7194C102.131 25.6324 102.085 25.5453 101.994 25.5018" stroke="black" stroke-width="0.18"/>
<path d="M105.59 22.412L105.544 22.325C105.271 21.4111 104.634 20.6278 103.815 20.1491C103.36 19.8879 102.813 19.7574 102.267 19.7574C102.222 19.7574 102.176 19.7574 102.085 19.7574L102.131 19.975V19.7574H89.3416V20.2361H102.176H102.313C102.768 20.2361 103.223 20.3666 103.587 20.5842C104.315 21.0194 104.862 21.7157 105.089 22.4991L105.317 22.412L105.044 22.4555L105.089 22.5861L108.867 33.4657V33.5092C109.003 33.9444 109.049 34.4231 109.049 34.8583C109.049 35.25 109.003 35.6852 108.821 36.0333C108.639 36.425 108.366 36.7731 107.956 37.0342L107.865 37.1213L97.1243 44.1713C96.5782 44.5629 95.8955 44.7805 95.2128 44.7805C94.4391 44.7805 93.6654 44.5194 93.0737 44.0407L92.9372 43.9537L83.2884 37.3824H83.2429C82.9243 37.1213 82.6057 36.8602 82.3327 36.5555C81.8775 36.0333 81.6045 35.3805 81.5589 34.6842C81.5589 34.3796 81.6045 34.1185 81.6955 33.8574L85.7461 22.325V22.1944C85.8372 21.8028 86.0647 21.4111 86.3833 21.1065C87.066 20.4537 88.0218 20.1055 89.0231 20.1491H89.2506V19.6703H89.0231C87.3846 19.6703 86.4288 20.2796 85.8827 20.8889C85.5641 21.237 85.3365 21.6722 85.2455 22.1074L85.5186 22.1509L85.291 22.0639L81.2859 33.5963C81.1493 33.9009 81.1038 34.2491 81.1038 34.5972C81.1493 35.4241 81.4679 36.2509 82.0596 36.8602C82.3327 37.1648 82.6513 37.4694 83.0154 37.687L92.6641 44.2583L92.8006 44.3018L92.9372 44.0842L92.8461 44.3889C93.5743 44.9111 94.3936 45.1722 95.3038 45.2157C96.1231 45.2157 96.9423 44.9546 97.5795 44.4759L97.3974 44.3018L97.534 44.4759L108.275 37.4259L108.366 37.3389L108.184 37.1648L108.32 37.3389C108.776 37.0342 109.14 36.5991 109.322 36.1203C109.504 35.6852 109.595 35.2065 109.595 34.7713C109.595 34.2491 109.504 33.7268 109.367 33.2481" fill="black"/>
</svg>
